<svg xmlns="http://www.w3.org/2000/svg" viewBox="150 339.93 700 320.14"><defs/><path fill="#a3542e" transform="matrix(0.6707838597000592 0 0 0.6707838597000592 26.721486459725302 4.447524187114901)" d="M 422.26076662083 661.94624883978 C 444.88476662083 661.94624883978 466.25976662083 667.39024883978 485.14976662083 677.03324883978 L 500.82776662083 600.88224883978 C 421.86776662083 600.88224883978 404.42376662083 643.11524883978 366.78076662083 643.11524883978 C 329.13676662083 643.11524883978 311.69276662083 600.88224883978 232.73276662083 600.88224883978 L 248.11576662083 675.59824883978 C 266.28376662083 666.85124883978 286.63676662083 661.94624883978 308.11276662083 661.94624883978 L 422.26076662083 661.94624883978 Z"/><path fill="#eb8b11" transform="matrix(0.6707838597000592 0 0 0.6707838597000592 26.721486459725302 4.447524187114901)" d="M 271.66476662083 598.96124883978 L 269.70876662083 559.74324883978 L 269.57376662083 557.05124883978 L 271.73476662083 555.43924883978 L 273.01576662083 554.48224883978 L 269.34876662083 523.71124883978 L 254.92276662083 520.64924883978 L 248.49276662083 526.06824883978 L 256.20976662083 596.43224883978 C 261.68776662083 597.07524883978 266.83176662083 597.92724883978 271.66476662083 598.96124883978 Z"/><path fill="#eb8b11" transform="matrix(0.6707838597000592 0 0 0.6707838597000592 26.721486459725302 4.447524187114901)" d="M 307.67176662083 611.48924883979 C 315.23076662083 615.18924883978 321.90576662083 619.10124883978 328.12076662083 622.74824883979 C 328.59176662083 623.02524883978 329.04976662083 623.29324883978 329.51376662083 623.56424883978 L 328.47876662083 535.58224883978 L 314.46076662083 530.99824883979 L 307.49076662083 535.70024883979 L 307.67176662083 611.48924883979 Z"/><path fill="#eb8b11" transform="matrix(0.6707838597000592 0 0 0.6707838597000592 26.721486459725302 4.447524187114901)" d="M 342.73176662083 554.43324883978 L 344.75576662083 553.01124883978 L 347.12076662083 553.73424883978 L 357.23376662083 556.82424883978 L 357.66176662083 506.19724883978 L 343.73976662083 501.32924883978 L 336.67476662083 505.89324883978 L 335.72076662083 559.36724883978 L 335.85676662083 559.27424883978 Z"/><path fill="#eb8b11" transform="matrix(0.6707838597000592 0 0 0.6707838597000592 26.721486459725302 4.447524187114901)" d="M 364.80376662083 562.72324883978 L 367.14076662083 637.32624883978 L 367.14576662083 637.32624883978 L 367.77576662083 587.88024883978 L 367.80976662083 585.18424883978 L 370.06776662083 583.71124883978 L 377.10676662083 579.11324883978 L 379.17876662083 577.76124883978 L 381.51676662083 578.56624883978 L 383.00876662083 579.07624883978 L 383.55376662083 514.50424883978 L 369.63176662083 509.63824883978 L 362.56776662083 514.19924883978 L 361.78376662083 558.21524883978 L 364.69076662083 559.10524883978 Z"/><path fill="#eb8b11" transform="matrix(0.6707838597000592 0 0 0.6707838597000592 26.721486459725302 4.447524187114901)" d="M 398.88876662083 584.53824883978 L 398.87576662083 588.16224883979 L 398.74776662083 626.63524883978 C 400.85676662083 625.43224883979 403.01576662083 624.17124883979 405.25176662083 622.85924883978 L 403.38876662083 554.96224883978 L 403.31576662083 552.27024883978 L 405.51176662083 550.70624883979 L 412.35976662083 545.82924883978 L 414.37676662083 544.39224883979 L 414.57776662083 544.45224883978 L 414.74776662083 524.63324883979 L 400.82376662083 519.76724883979 L 393.76076662083 524.32824883978 L 392.72476662083 582.42024883978 L 395.46376662083 583.36324883979 L 398.88876662083 584.53824883978 Z"/><path fill="#eb8b11" transform="matrix(0.6707838597000592 0 0 0.6707838597000592 26.721486459725302 4.447524187114901)" d="M 434.34376662083 550.37824883978 L 434.47876662083 553.99624883978 L 436.42176662083 606.77324883978 C 438.52976662083 605.91524883978 440.69976662083 605.08524883978 442.95376662083 604.28924883978 L 442.40776662083 571.52024883978 L 442.36176662083 568.82424883978 L 444.57476662083 567.28324883978 L 446.95176662083 565.62924883978 L 447.46576662083 505.00324883978 L 433.54276662083 500.13424883978 L 426.47976662083 504.69724883978 L 425.70976662083 547.78824883978 L 430.87476662083 549.33524883978 L 434.34376662083 550.37824883978 Z"/><path fill="#eb8b11" transform="matrix(0.6707838597000592 0 0 0.6707838597000592 26.721486459725302 4.447524187114901)" d="M 473.40976662083 567.26724883978 L 473.50576662083 570.88824883978 L 474.18076662083 596.83224883978 C 476.07676662083 596.57524883978 478.00376662083 596.33524883978 479.98376662083 596.13224883978 L 486.30776662083 538.13924883978 L 472.94176662083 531.90424883978 L 465.45876662083 535.73724883978 L 462.13776662083 563.75624883978 L 469.95276662083 566.19224883978 L 473.40976662083 567.26724883978 Z"/><path fill="#eb8b11" transform="matrix(0.6707838597000592 0 0 0.6707838597000592 26.721486459725302 4.447524187114901)" d="M 298.62576662083 607.38024883978 L 295.71876662083 558.37624883978 L 281.49876662083 554.46124883978 L 274.75976662083 559.49124883978 L 276.78976662083 600.14824883978 C 284.86876662083 602.16124883978 292.07976662083 604.64524883978 298.62576662083 607.38024883978 Z"/><path fill="#eb8b11" transform="matrix(0.6707838597000592 0 0 0.6707838597000592 26.721486459725302 4.447524187114901)" d="M 297.06176662083 553.49924883978 L 300.55376662083 554.46224883978 L 300.76776662083 558.07724883978 L 302.55876662083 588.27724883978 L 302.43276662083 535.71224883978 L 302.42776662083 533.01624883978 L 304.66276662083 531.50924883978 L 307.77876662083 529.40624883978 L 306.15876662083 515.81424883978 L 291.72976662083 512.75124883978 L 285.30376662083 518.17024883978 L 288.93176662083 551.26124883978 Z"/><path fill="#eb8b11" transform="matrix(0.6707838597000592 0 0 0.6707838597000592 26.721486459725302 4.447524187114901)" d="M 338.76676662083 563.40924883978 L 340.22076662083 629.61624883978 C 347.51976662083 633.46024883978 354.43776662083 636.24624883978 362.07276662083 637.07324883978 L 359.74976662083 562.88224883978 L 345.64376662083 558.57224883978 L 338.76676662083 563.40924883978 Z"/><path fill="#eb8b11" transform="matrix(0.6707838597000592 0 0 0.6707838597000592 26.721486459725302 4.447524187114901)" d="M 372.83376662083 587.94424883978 L 372.20876662083 636.98724883978 C 379.67876662083 636.05324883978 386.48676662083 633.24724883978 393.68076662083 629.43124883978 L 393.81976662083 588.14424883978 L 379.87376662083 583.34624883978 L 372.83376662083 587.94424883978 Z"/><path fill="#eb8b11" transform="matrix(0.6707838597000592 0 0 0.6707838597000592 26.721486459725302 4.447524187114901)" d="M 410.23076662083 619.95124883979 C 416.61276662083 616.25124883978 423.54076662083 612.41524883978 431.43576662083 608.89224883979 L 429.42376662083 554.18224883979 L 415.29376662083 549.94524883978 L 408.44376662083 554.82224883978 L 410.23076662083 619.95124883979 Z"/><path fill="#eb8b11" transform="matrix(0.6707838597000592 0 0 0.6707838597000592 26.721486459725302 4.447524187114901)" d="M 447.98476662083 602.61524883978 C 454.39976662083 600.60024883978 461.40676662083 598.87524883978 469.13976662083 597.58924883978 L 468.44776662083 571.02124883978 L 454.36576662083 566.63524883978 L 447.46576662083 571.43624883978 L 447.98476662083 602.61524883978 Z"/><path fill="#eb8b11" transform="matrix(0.6707838597000592 0 0 0.6707838597000592 26.721486459725302 4.447524187114901)" d="M 521.14376662083 871.27224883978 L 480.79376662083 871.27224883978 L 425.26176662083 929.91524883978 C 418.56476662083 936.98824883978 407.39776662083 937.29324883978 400.32476662083 930.59324883978 L 337.67876662083 871.27324883978 L 209.22776662083 871.27324883978 C 195.91576662083 871.27324883978 186.46776662083 882.08624883978 190.91676662083 894.63524883978 C 208.01576662083 942.85724883978 254.02376662083 977.39824883978 308.11176662083 977.39824883978 L 422.25976662083 977.39824883978 C 476.34676662083 977.39824883978 522.35676662083 942.85724883978 539.45576662083 894.63524883978 C 543.90576662083 882.08524883978 534.45676662083 871.27224883978 521.14376662083 871.27224883978 Z"/><path fill="#eb8b11" transform="matrix(0.6707838597000592 0 0 0.6707838597000592 26.721486459725302 4.447524187114901)" d="M 422.26076662083 676.39824883978 L 308.11176662083 676.39824883978 C 239.44476662083 676.39824883978 183.78276662083 732.06224883978 183.78276662083 800.72624883978 C 183.78276662083 800.72624883978 183.78276662083 808.42424883978 183.78276662083 817.91924883978 C 183.78276662083 827.41524883978 194.57476662083 835.11324883978 207.88876662083 835.11324883978 L 522.48376662083 835.11324883978 C 535.79576662083 835.11324883978 546.58876662083 827.41524883978 546.58876662083 817.91924883978 L 546.58876662083 800.72624883978 C 546.58976662083 732.06124883978 490.92776662083 676.39824883978 422.26076662083 676.39824883978 Z M 217.16576662083 757.72524883978 C 216.50376662083 760.03424883978 212.72976662083 765.24124883978 211.19176662083 764.80324883978 C 209.68476662083 764.36524883978 209.22776662083 757.93924883978 209.88276662083 755.63924883978 C 210.54176662083 753.33524883978 212.70776662083 751.93324883978 214.72476662083 752.51024883978 C 216.74276662083 753.09324883978 217.82776662083 755.42424883978 217.16576662083 757.72524883978 Z M 248.23776662083 740.69624883978 C 246.74776662083 741.20224883978 242.71776662083 736.17324883978 241.95476662083 733.90224883978 C 241.18776662083 731.63324883978 242.16876662083 729.24524883978 244.16276662083 728.57824883978 C 246.14476662083 727.91624883978 248.37176662083 729.21424883978 249.13476662083 731.48524883978 C 249.90176662083 733.75924883978 249.74676662083 740.19124883978 248.23776662083 740.69624883978 Z M 257.02776662083 774.96724883978 C 256.17776662083 777.21024883978 251.99976662083 782.10824883978 250.50276662083 781.54324883978 C 249.03676662083 780.98724883978 249.08576662083 774.54624883978 249.93076662083 772.30224883978 C 250.77376662083 770.05624883978 253.04276662083 768.83324883978 255.00876662083 769.57324883978 C 256.96676662083 770.30724883978 257.86776662083 772.72524883978 257.02776662083 774.96724883978 Z M 293.48276662083 762.70624883978 C 292.31176662083 763.75624883978 286.62976662083 760.71924883978 285.02876662083 758.93024883978 C 283.43676662083 757.13424883978 283.40876662083 754.56624883978 284.97276662083 753.16624883978 C 286.53576662083 751.77424883978 289.09476662083 752.09124883978 290.68776662083 753.88424883978 C 292.28076662083 755.67224883978 294.67376662083 761.64924883978 293.48276662083 762.70624883978 Z M 294.94476662083 713.97624883978 C 294.28576662083 716.28224883978 290.50276662083 721.49724883978 288.96976662083 721.05524883978 C 287.46376662083 720.61924883978 287.00576662083 714.18524883978 287.66176662083 711.89024883978 C 288.32376662083 709.58724883978 290.49176662083 708.18424883978 292.50176662083 708.76524883978 C 294.51576662083 709.34124883978 295.61076662083 711.67324883978 294.94476662083 713.97624883978 Z M 325.19776662083 702.33624883978 C 324.43276662083 700.06124883978 325.42676662083 697.67924883978 327.40776662083 697.01324883978 C 329.39476662083 696.34224883978 331.61176662083 697.64224883978 332.37976662083 699.91724883978 C 333.14476662083 702.18724883978 332.99676662083 708.61924883978 331.48776662083 709.13024883978 C 329.99976662083 709.63324883978 325.96576662083 704.60324883978 325.19776662083 702.33624883978 Z M 339.20376662083 747.66524883978 C 338.69876662083 750.01124883978 335.27476662083 755.45524883978 333.71076662083 755.11924883978 C 332.18076662083 754.78324883978 331.28676662083 748.40724883978 331.79976662083 746.06124883978 C 332.30276662083 743.72024883978 334.37476662083 742.17724883978 336.42276662083 742.62324883978 C 338.47176662083 743.06724883978 339.71776662083 745.32524883978 339.20376662083 747.66524883978 Z M 366.32376662083 730.32424883978 C 365.04276662083 731.24124883978 359.71976662083 727.61524883978 358.32176662083 725.66724883978 C 356.92676662083 723.72024883978 357.17476662083 721.15424883978 358.87976662083 719.92924883978 C 360.57876662083 718.71524883978 363.08676662083 719.30524883978 364.48176662083 721.25524883978 C 365.87776662083 723.20024883978 367.62076662083 729.40024883978 366.32376662083 730.32424883978 Z M 375.56676662083 765.94224883978 C 375.18976662083 768.31024883978 372.06276662083 773.93424883978 370.48776662083 773.68624883978 C 368.93876662083 773.43224883978 367.70976662083 767.10124883978 368.08376662083 764.73724883978 C 368.46776662083 762.37724883978 370.44676662083 760.72824883978 372.51776662083 761.05324883978 C 374.58076662083 761.38724883978 375.95076662083 763.57824883978 375.56676662083 765.94224883978 Z M 389.94176662083 708.14924883978 C 388.63176662083 709.02324883978 383.41776662083 705.23224883978 382.08476662083 703.24824883978 C 380.74976662083 701.25324883978 381.07076662083 698.69724883978 382.82076662083 697.53624883978 C 384.55076662083 696.36324883978 387.04676662083 697.02924883978 388.38176662083 699.02024883978 C 389.71776662083 701.01524883978 391.26276662083 707.26124883978 389.94176662083 708.14924883978 Z M 408.52076662083 751.48824883978 C 407.25576662083 752.42624883978 401.86276662083 748.89524883978 400.43876662083 746.97324883978 C 399.00476662083 745.04624883978 399.20576662083 742.47924883978 400.88576662083 741.22924883978 C 402.56776662083 739.97624883978 405.08276662083 740.52324883978 406.51376662083 742.44824883978 C 407.95076662083 744.37124883978 409.80276662083 750.53724883978 408.52076662083 751.48824883978 Z M 432.78476662083 711.29324883978 C 431.29476662083 711.80024883978 427.26376662083 706.76524883978 426.49876662083 704.49524883978 C 425.73376662083 702.22324883978 426.72176662083 699.84224883978 428.70876662083 699.17524883978 C 430.68876662083 698.50124883978 432.91976662083 699.80424883978 433.67776662083 702.08224883978 C 434.44476662083 704.34724883978 434.29276662083 710.78824883978 432.78476662083 711.29324883978 Z M 446.43876662083 770.15424883978 C 445.01476662083 772.07924883978 439.65876662083 775.64124883978 438.37676662083 774.70424883978 C 437.11176662083 773.76524883978 438.91576662083 767.57724883978 440.33776662083 765.65224883978 C 441.76176662083 763.71824883978 444.28176662083 763.16624883978 445.96576662083 764.40824883978 C 447.64976662083 765.65024883978 447.85876662083 768.22024883978 446.43876662083 770.15424883978 Z M 448.30876662083 744.03524883978 C 446.04376662083 744.83124883978 443.64876662083 743.88324883978 442.94976662083 741.90724883978 C 442.24976662083 739.93424883978 443.51776662083 737.69024883978 445.77276662083 736.89024883978 C 448.04176662083 736.09024883978 454.46876662083 736.13724883978 455.00676662083 737.63724883978 C 455.52176662083 739.11924883978 450.56376662083 743.23424883978 448.30876662083 744.03524883978 Z M 477.16776662083 713.59224883978 C 475.74376662083 715.52624883978 470.38576662083 719.08824883978 469.09976662083 718.14324883978 C 467.83776662083 717.21624883978 469.63876662083 711.02924883978 471.06576662083 709.09424883978 C 472.48476662083 707.16524883978 475.00476662083 706.60324883978 476.69276662083 707.85424883978 C 478.37976662083 709.09624883978 478.58776662083 711.66424883978 477.16776662083 713.59224883978 Z M 488.60576662083 773.80724883978 C 487.11576662083 774.31524883978 483.08076662083 769.28624883978 482.31576662083 767.01224883978 C 481.55476662083 764.74224883978 482.54676662083 762.35524883978 484.53176662083 761.69324883978 C 486.51476662083 761.01824883978 488.74276662083 762.32424883978 489.51076662083 764.59724883978 C 490.27176662083 766.86324883978 490.11676662083 773.30224883978 488.60576662083 773.80724883978 Z M 504.19376662083 738.45024883978 C 502.72076662083 739.00024883978 498.52076662083 734.11224883978 497.68076662083 731.86824883978 C 496.83776662083 729.61824883978 497.74776662083 727.20524883978 499.71176662083 726.47024883978 C 501.67276662083 725.74124883978 503.93876662083 726.96224883978 504.77976662083 729.20824883978 C 505.62076662083 731.45024883978 505.68676662083 737.88924883978 504.19376662083 738.45024883978 Z"/><path id="text" fill="#1f1e1c" transform="matrix(0.8147104047992456 0 0 0.8147104047992456 355.9289141219124 68.97574675392869)" d="M 162.05568985215 433.44455130815 C 158.21568985215 437.38055130815 152.61568985215 440.21255130815 145.25568985215 441.94055130815 C 149.22368985215 443.02855130815 152.23168985215 444.80455130815 154.27968985215 447.26855130815 C 156.32768985215 449.73255130815 157.35168985215 452.56455130815 157.35168985215 455.76455130815 C 157.35168985215 460.82055130815 155.76768985215 465.20455130815 152.59968985215 468.91655130815 C 149.43168985215 472.62855130815 144.80768985215 475.49255130815 138.72768985215 477.50855130815 C 132.64768985215 479.52455130815 125.31968985215 480.53255130815 116.74368985215 480.53255130815 C 113.54368985215 480.53255130815 110.98368985215 480.43655130815 109.06368985215 480.24455130815 C 108.99968985215 482.03655130815 108.23168985215 483.38055130815 106.75968985215 484.27655130815 C 105.28768985215 485.17255130815 103.39968985215 485.62055130815 101.09568985215 485.62055130815 C 98.79168985215 485.62055130815 97.20768985215 485.10855130815 96.34368985215 484.08455130815 C 95.47968985215 483.06055130815 95.11168985215 481.55655130815 95.23968985215 479.57255130815 C 95.81568985215 470.61255130815 96.93568985215 461.22055130815 98.59968985215 451.39655130815 C 100.26368985215 441.57255130815 102.37568985215 432.08455130815 104.93568985215 422.93255130815 C 105.38368985215 421.33255130815 106.27968985215 420.21255130815 107.62368985215 419.57255130815 C 108.96768985215 418.93255130815 110.72768985215 418.61255130815 112.90368985215 418.61255130815 C 116.80768985215 418.61255130815 118.75968985215 419.70055130815 118.75968985215 421.87655130815 C 118.75968985215 422.77255130815 118.56768985215 423.79655130815 118.18368985215 424.94855130815 C 116.51968985215 429.94055130815 114.85568985215 436.70855130815 113.19168985215 445.25255130815 C 111.52768985215 453.79655130815 110.34368985215 461.94055130815 109.63968985215 469.68455130815 C 112.71168985215 469.94055130815 115.20768985215 470.06855130815 117.12768985215 470.06855130815 C 126.08768985215 470.06855130815 132.66368985215 468.77255130815 136.85568985215 466.18055130815 C 141.04768985215 463.58855130815 143.14368985215 460.27655130815 143.14368985215 456.24455130815 C 143.14368985215 453.42855130815 141.94368985215 451.06055130815 139.54368985215 449.14055130815 C 137.14368985215 447.22055130815 133.12768985215 446.16455130815 127.49568985215 445.97255130815 C 126.21568985215 445.90855130815 125.31968985215 445.58855130815 124.80768985215 445.01255130815 C 124.29568985215 444.43655130815 124.03968985215 443.50855130815 124.03968985215 442.22855130815 C 124.03968985215 440.37255130815 124.42368985215 438.86855130815 125.19168985215 437.71655130815 C 125.95968985215 436.56455130815 127.36768985215 435.95655130815 129.41568985215 435.89255130815 C 133.95968985215 435.76455130815 138.07168985215 435.09255130815 141.75168985215 433.87655130815 C 145.43168985215 432.66055130815 148.32768985215 430.94855130815 150.43968985215 428.74055130815 C 152.55168985215 426.53255130815 153.60768985215 423.95655130815 153.60768985215 421.01255130815 C 153.60768985215 417.30055130815 151.78368985215 414.37255130815 148.13568985215 412.22855130815 C 144.48768985215 410.08455130815 138.88768985215 409.01255130815 131.33568985215 409.01255130815 C 124.48768985215 409.01255130815 117.86368985215 409.89255130815 111.46368985215 411.65255130815 C 105.06368985215 413.41255130815 99.62368985215 415.63655130815 95.14368985215 418.32455130815 C 93.09568985215 419.54055130815 91.36768985215 420.14855130815 89.95968985215 420.14855130815 C 88.80768985215 420.14855130815 87.92768985215 419.74855130815 87.31968985215 418.94855130815 C 86.71168985215 418.14855130815 86.40768985215 417.14055130815 86.40768985215 415.92455130815 C 86.40768985215 414.32455130815 86.74368985215 412.94855130815 87.41568985215 411.79655130815 C 88.08768985215 410.64455130815 89.70368985215 409.33255130815 92.26368985215 407.86055130815 C 97.63968985215 404.78855130815 103.94368985215 402.38855130815 111.17568985215 400.66055130815 C 118.40768985215 398.93255130815 125.79968985215 398.06855130815 133.35168985215 398.06855130815 C 144.93568985215 398.06855130815 153.57568985215 400.02055130815 159.27168985215 403.92455130815 C 164.96768985215 407.82855130815 167.81568985215 412.98055130815 167.81568985215 419.38055130815 C 167.81568985215 424.82055130815 165.89568985215 429.50855130815 162.05568985215 433.44455130815 Z M 171.70368985215 478.46855130815 C 169.04768985215 476.58055130815 167.04768985215 474.10055130815 165.70368985215 471.02855130815 C 164.35968985215 467.95655130815 163.68768985215 464.66055130815 163.68768985215 461.14055130815 C 163.68768985215 456.27655130815 164.59968985215 451.94055130815 166.42368985215 448.13255130815 C 168.24768985215 444.32455130815 170.72768985215 441.34855130815 173.86368985215 439.20455130815 C 176.99968985215 437.06055130815 180.51968985215 435.98855130815 184.42368985215 435.98855130815 C 188.19968985215 435.98855130815 191.43168985215 436.93255130815 194.11968985215 438.82055130815 C 196.80768985215 440.70855130815 198.82368985215 443.18855130815 200.16768985215 446.26055130815 C 201.51168985215 449.33255130815 202.18368985215 452.62855130815 202.18368985215 456.14855130815 C 202.18368985215 461.01255130815 201.25568985215 465.34855130815 199.39968985215 469.15655130815 C 197.54368985215 472.96455130815 195.03168985215 475.94055130815 191.86368985215 478.08455130815 C 188.69568985215 480.22855130815 185.19168985215 481.30055130815 181.35168985215 481.30055130815 C 177.57568985215 481.30055130815 174.35968985215 480.35655130815 171.70368985215 478.46855130815 Z M 187.92768985215 467.38055130815 C 189.43168985215 465.01255130815 190.18368985215 461.55655130815 190.18368985215 457.01255130815 C 190.18368985215 453.49255130815 189.54368985215 450.83655130815 188.26368985215 449.04455130815 C 186.98368985215 447.25255130815 185.44768985215 446.35655130815 183.65568985215 446.35655130815 C 181.35168985215 446.35655130815 179.44768985215 447.52455130815 177.94368985215 449.86055130815 C 176.43968985215 452.19655130815 175.68768985215 455.66855130815 175.68768985215 460.27655130815 C 175.68768985215 463.92455130815 176.32768985215 466.61255130815 177.60768985215 468.34055130815 C 178.88768985215 470.06855130815 180.48768985215 470.93255130815 182.40768985215 470.93255130815 C 184.58368985215 470.93255130815 186.42368985215 469.74855130815 187.92768985215 467.38055130815 Z M 218.35968985215 481.10855130815 C 216.59968985215 479.57255130815 215.71968985215 477.84455130815 215.71968985215 475.92455130815 C 215.71968985215 474.26055130815 216.32768985215 472.82055130815 217.54368985215 471.60455130815 C 218.75968985215 470.38855130815 220.55168985215 469.78055130815 222.91968985215 469.78055130815 C 223.75168985215 469.78055130815 224.72768985215 469.86055130815 225.84768985215 470.02055130815 C 226.96768985215 470.18055130815 227.81568985215 470.29255130815 228.39168985215 470.35655130815 C 228.32768985215 468.69255130815 227.95968985215 467.12455130815 227.28768985215 465.65255130815 C 226.61568985215 464.18055130815 225.76768985215 462.75655130815 224.74368985215 461.38055130815 C 223.71968985215 460.00455130815 222.75968985215 458.80455130815 221.86368985215 457.78055130815 C 219.87968985215 461.55655130815 217.91168985215 464.69255130815 215.95968985215 467.18855130815 C 214.00768985215 469.68455130815 211.87968985215 472.05255130815 209.57568985215 474.29255130815 C 208.42368985215 475.44455130815 207.20768985215 476.02055130815 205.92768985215 476.02055130815 C 204.90368985215 476.02055130815 204.07168985215 475.65255130815 203.43168985215 474.91655130815 C 202.79168985215 474.18055130815 202.47168985215 473.26855130815 202.47168985215 472.18055130815 C 202.47168985215 470.90055130815 202.91968985215 469.71655130815 203.81568985215 468.62855130815 L 205.06368985215 467.09255130815 C 208.58368985215 462.74055130815 211.23968985215 459.15655130815 213.03168985215 456.34055130815 C 214.11968985215 454.48455130815 215.39968985215 452.00455130815 216.87168985215 448.90055130815 C 218.34368985215 445.79655130815 219.78368985215 442.58055130815 221.19168985215 439.25255130815 C 222.40768985215 436.43655130815 224.93568985215 435.02855130815 228.77568985215 435.02855130815 C 230.56768985215 435.02855130815 231.81568985215 435.18855130815 232.51968985215 435.50855130815 C 233.22368985215 435.82855130815 233.57568985215 436.34055130815 233.57568985215 437.04455130815 C 233.57568985215 437.42855130815 233.44768985215 438.03655130815 233.19168985215 438.86855130815 C 232.93568985215 439.70055130815 232.58368985215 440.53255130815 232.13568985215 441.36455130815 C 230.98368985215 443.66855130815 230.40768985215 445.62055130815 230.40768985215 447.22055130815 C 230.40768985215 448.18055130815 230.74368985215 449.23655130815 231.41568985215 450.38855130815 C 232.08768985215 451.54055130815 233.12768985215 452.98055130815 234.53568985215 454.70855130815 C 236.58368985215 457.39655130815 238.13568985215 459.68455130815 239.19168985215 461.57255130815 C 240.24768985215 463.46055130815 240.77568985215 465.52455130815 240.77568985215 467.76455130815 C 240.77568985215 468.40455130815 240.71168985215 469.30055130815 240.58368985215 470.45255130815 C 243.71968985215 469.23655130815 247.39968985215 466.00455130815 251.62368985215 460.75655130815 C 252.39168985215 459.86055130815 253.25568985215 459.41255130815 254.21568985215 459.41255130815 C 255.04768985215 459.41255130815 255.70368985215 459.79655130815 256.18368985215 460.56455130815 C 256.66368985215 461.33255130815 256.90368985215 462.38855130815 256.90368985215 463.73255130815 C 256.90368985215 466.16455130815 256.29568985215 468.14855130815 255.07968985215 469.68455130815 C 251.87968985215 473.65255130815 248.82368985215 476.35655130815 245.91168985215 477.79655130815 C 242.99968985215 479.23655130815 239.39968985215 480.02055130815 235.11168985215 480.14855130815 C 232.55168985215 482.32455130815 229.51168985215 483.41255130815 225.99168985215 483.41255130815 C 222.66368985215 483.41255130815 220.11968985215 482.64455130815 218.35968985215 481.10855130815 Z M 259.35168985215 481.10855130815 C 257.59168985215 479.57255130815 256.71168985215 477.84455130815 256.71168985215 475.92455130815 C 256.71168985215 474.26055130815 257.31968985215 472.82055130815 258.53568985215 471.60455130815 C 259.75168985215 470.38855130815 261.54368985215 469.78055130815 263.91168985215 469.78055130815 C 264.74368985215 469.78055130815 265.71968985215 469.86055130815 266.83968985215 470.02055130815 C 267.95968985215 470.18055130815 268.80768985215 470.29255130815 269.38368985215 470.35655130815 C 269.31968985215 468.69255130815 268.95168985215 467.12455130815 268.27968985215 465.65255130815 C 267.60768985215 464.18055130815 266.75968985215 462.75655130815 265.73568985215 461.38055130815 C 264.71168985215 460.00455130815 263.75168985215 458.80455130815 262.85568985215 457.78055130815 C 260.87168985215 461.55655130815 258.90368985215 464.69255130815 256.95168985215 467.18855130815 C 254.99968985215 469.68455130815 252.87168985215 472.05255130815 250.56768985215 474.29255130815 C 249.41568985215 475.44455130815 248.19968985215 476.02055130815 246.91968985215 476.02055130815 C 245.89568985215 476.02055130815 245.06368985215 475.65255130815 244.42368985215 474.91655130815 C 243.78368985215 474.18055130815 243.46368985215 473.26855130815 243.46368985215 472.18055130815 C 243.46368985215 470.90055130815 243.91168985215 469.71655130815 244.80768985215 468.62855130815 L 246.05568985215 467.09255130815 C 249.57568985215 462.74055130815 252.23168985215 459.15655130815 254.02368985215 456.34055130815 C 255.17568985215 454.48455130815 256.34368985215 452.27655130815 257.52768985215 449.71655130815 C 258.71168985215 447.15655130815 260.26368985215 443.66855130815 262.18368985215 439.25255130815 C 263.39968985215 436.43655130815 265.92768985215 435.02855130815 269.76768985215 435.02855130815 C 271.55968985215 435.02855130815 272.80768985215 435.18855130815 273.51168985215 435.50855130815 C 274.21568985215 435.82855130815 274.56768985215 436.34055130815 274.56768985215 437.04455130815 C 274.56768985215 437.42855130815 274.43968985215 438.03655130815 274.18368985215 438.86855130815 C 273.92768985215 439.70055130815 273.57568985215 440.53255130815 273.12768985215 441.36455130815 C 271.97568985215 443.66855130815 271.39968985215 445.62055130815 271.39968985215 447.22055130815 C 271.39968985215 448.18055130815 271.73568985215 449.23655130815 272.40768985215 450.38855130815 C 273.07968985215 451.54055130815 274.11968985215 452.98055130815 275.52768985215 454.70855130815 C 277.57568985215 457.39655130815 279.12768985215 459.68455130815 280.18368985215 461.57255130815 C 281.23968985215 463.46055130815 281.76768985215 465.52455130815 281.76768985215 467.76455130815 C 281.76768985215 470.45255130815 281.14368985215 472.99655130815 279.89568985215 475.39655130815 C 278.64768985215 477.79655130815 276.90368985215 479.73255130815 274.66368985215 481.20455130815 C 272.42368985215 482.67655130815 269.86368985215 483.41255130815 266.98368985215 483.41255130815 C 263.65568985215 483.41255130815 261.11168985215 482.64455130815 259.35168985215 481.10855130815 Z M 385.35168985215 433.44455130815 C 381.51168985215 437.38055130815 375.91168985215 440.21255130815 368.55168985215 441.94055130815 C 372.51968985215 443.02855130815 375.52768985215 444.80455130815 377.57568985215 447.26855130815 C 379.62368985215 449.73255130815 380.64768985215 452.56455130815 380.64768985215 455.76455130815 C 380.64768985215 460.82055130815 379.06368985215 465.20455130815 375.89568985215 468.91655130815 C 372.72768985215 472.62855130815 368.10368985215 475.49255130815 362.02368985215 477.50855130815 C 355.94368985215 479.52455130815 348.61568985215 480.53255130815 340.03968985215 480.53255130815 C 336.83968985215 480.53255130815 334.27968985215 480.43655130815 332.35968985215 480.24455130815 C 332.29568985215 482.03655130815 331.52768985215 483.38055130815 330.05568985215 484.27655130815 C 328.58368985215 485.17255130815 326.69568985215 485.62055130815 324.39168985215 485.62055130815 C 322.08768985215 485.62055130815 320.50368985215 485.10855130815 319.63968985215 484.08455130815 C 318.77568985215 483.06055130815 318.40768985215 481.55655130815 318.53568985215 479.57255130815 C 319.11168985215 470.61255130815 320.23168985215 461.22055130815 321.89568985215 451.39655130815 C 323.55968985215 441.57255130815 325.67168985215 432.08455130815 328.23168985215 422.93255130815 C 328.67968985215 421.33255130815 329.57568985215 420.21255130815 330.91968985215 419.57255130815 C 332.26368985215 418.93255130815 334.02368985215 418.61255130815 336.19968985215 418.61255130815 C 340.10368985215 418.61255130815 342.05568985215 419.70055130815 342.05568985215 421.87655130815 C 342.05568985215 422.77255130815 341.86368985215 423.79655130815 341.47968985215 424.94855130815 C 339.81568985215 429.94055130815 338.15168985215 436.70855130815 336.48768985215 445.25255130815 C 334.82368985215 453.79655130815 333.63968985215 461.94055130815 332.93568985215 469.68455130815 C 336.00768985215 469.94055130815 338.50368985215 470.06855130815 340.42368985215 470.06855130815 C 349.38368985215 470.06855130815 355.95968985215 468.77255130815 360.15168985215 466.18055130815 C 364.34368985215 463.58855130815 366.43968985215 460.27655130815 366.43968985215 456.24455130815 C 366.43968985215 453.42855130815 365.23968985215 451.06055130815 362.83968985215 449.14055130815 C 360.43968985215 447.22055130815 356.42368985215 446.16455130815 350.79168985215 445.97255130815 C 349.51168985215 445.90855130815 348.61568985215 445.58855130815 348.10368985215 445.01255130815 C 347.59168985215 444.43655130815 347.33568985215 443.50855130815 347.33568985215 442.22855130815 C 347.33568985215 440.37255130815 347.71968985215 438.86855130815 348.48768985215 437.71655130815 C 349.25568985215 436.56455130815 350.66368985215 435.95655130815 352.71168985215 435.89255130815 C 357.25568985215 435.76455130815 361.36768985215 435.09255130815 365.04768985215 433.87655130815 C 368.72768985215 432.66055130815 371.62368985215 430.94855130815 373.73568985215 428.74055130815 C 375.84768985215 426.53255130815 376.90368985215 423.95655130815 376.90368985215 421.01255130815 C 376.90368985215 417.30055130815 375.07968985215 414.37255130815 371.43168985215 412.22855130815 C 367.78368985215 410.08455130815 362.18368985215 409.01255130815 354.63168985215 409.01255130815 C 347.78368985215 409.01255130815 341.15968985215 409.89255130815 334.75968985215 411.65255130815 C 328.35968985215 413.41255130815 322.91968985215 415.63655130815 318.43968985215 418.32455130815 C 316.39168985215 419.54055130815 314.66368985215 420.14855130815 313.25568985215 420.14855130815 C 312.10368985215 420.14855130815 311.22368985215 419.74855130815 310.61568985215 418.94855130815 C 310.00768985215 418.14855130815 309.70368985215 417.14055130815 309.70368985215 415.92455130815 C 309.70368985215 414.32455130815 310.03968985215 412.94855130815 310.71168985215 411.79655130815 C 311.38368985215 410.64455130815 312.99968985215 409.33255130815 315.55968985215 407.86055130815 C 320.93568985215 404.78855130815 327.23968985215 402.38855130815 334.47168985215 400.66055130815 C 341.70368985215 398.93255130815 349.09568985215 398.06855130815 356.64768985215 398.06855130815 C 368.23168985215 398.06855130815 376.87168985215 400.02055130815 382.56768985215 403.92455130815 C 388.26368985215 407.82855130815 391.11168985215 412.98055130815 391.11168985215 419.38055130815 C 391.11168985215 424.82055130815 389.19168985215 429.50855130815 385.35168985215 433.44455130815 Z M 392.59968985215 477.31655130815 C 390.77568985215 474.66055130815 389.86368985215 471.34855130815 389.86368985215 467.38055130815 C 389.86368985215 462.58055130815 390.18368985215 458.18055130815 390.82368985215 454.18055130815 C 391.46368985215 450.18055130815 392.51968985215 445.94055130815 393.99168985215 441.46055130815 C 394.63168985215 439.54055130815 395.52768985215 438.16455130815 396.67968985215 437.33255130815 C 397.83168985215 436.50055130815 399.65568985215 436.08455130815 402.15168985215 436.08455130815 C 403.55968985215 436.08455130815 404.53568985215 436.30855130815 405.07968985215 436.75655130815 C 405.62368985215 437.20455130815 405.89568985215 437.87655130815 405.89568985215 438.77255130815 C 405.89568985215 439.28455130815 405.54368985215 441.01255130815 404.83968985215 443.95655130815 C 404.19968985215 446.32455130815 403.68768985215 448.46855130815 403.30368985215 450.38855130815 C 402.02368985215 457.10855130815 401.38368985215 461.58855130815 401.38368985215 463.82855130815 C 401.38368985215 465.17255130815 401.54368985215 466.11655130815 401.86368985215 466.66055130815 C 402.18368985215 467.20455130815 402.69568985215 467.47655130815 403.39968985215 467.47655130815 C 404.35968985215 467.47655130815 405.55968985215 466.51655130815 406.99968985215 464.59655130815 C 408.43968985215 462.67655130815 409.97568985215 459.76455130815 411.60768985215 455.86055130815 C 413.23968985215 451.95655130815 414.82368985215 447.15655130815 416.35968985215 441.46055130815 C 416.87168985215 439.54055130815 417.65568985215 438.16455130815 418.71168985215 437.33255130815 C 419.76768985215 436.50055130815 421.35168985215 436.08455130815 423.46368985215 436.08455130815 C 424.93568985215 436.08455130815 425.95968985215 436.26055130815 426.53568985215 436.61255130815 C 427.11168985215 436.96455130815 427.39968985215 437.62055130815 427.39968985215 438.58055130815 C 427.39968985215 440.18055130815 426.59968985215 444.56455130815 424.99968985215 451.73255130815 C 423.20768985215 459.92455130815 422.31168985215 464.98055130815 422.31168985215 466.90055130815 C 422.31168985215 468.11655130815 422.56768985215 469.06055130815 423.07968985215 469.73255130815 C 423.59168985215 470.40455130815 424.26368985215 470.74055130815 425.09568985215 470.74055130815 C 426.37568985215 470.74055130815 427.89568985215 469.95655130815 429.65568985215 468.38855130815 C 431.41568985215 466.82055130815 433.76768985215 464.27655130815 436.71168985215 460.75655130815 C 437.47968985215 459.86055130815 438.34368985215 459.41255130815 439.30368985215 459.41255130815 C 440.13568985215 459.41255130815 440.79168985215 459.79655130815 441.27168985215 460.56455130815 C 441.75168985215 461.33255130815 441.99168985215 462.38855130815 441.99168985215 463.73255130815 C 441.99168985215 466.29255130815 441.38368985215 468.27655130815 440.16768985215 469.68455130815 C 437.41568985215 473.07655130815 434.45568985215 475.86055130815 431.28768985215 478.03655130815 C 428.11968985215 480.21255130815 424.51968985215 481.30055130815 420.48768985215 481.30055130815 C 417.41568985215 481.30055130815 415.15968985215 480.11655130815 413.71968985215 477.74855130815 C 412.27968985215 475.38055130815 411.55968985215 472.05255130815 411.55968985215 467.76455130815 C 410.47168985215 472.11655130815 408.83968985215 475.46055130815 406.66368985215 477.79655130815 C 404.48768985215 480.13255130815 402.15168985215 481.30055130815 399.65568985215 481.30055130815 C 396.77568985215 481.30055130815 394.42368985215 479.97255130815 392.59968985215 477.31655130815 Z M 435.89568985215 477.46055130815 C 434.90368985215 474.90055130815 434.40768985215 470.80455130815 434.40768985215 465.17255130815 C 434.40768985215 456.85255130815 435.59168985215 448.94855130815 437.95968985215 441.46055130815 C 438.53568985215 439.60455130815 439.47968985215 438.24455130815 440.79168985215 437.38055130815 C 442.10368985215 436.51655130815 443.94368985215 436.08455130815 446.31168985215 436.08455130815 C 447.59168985215 436.08455130815 448.48768985215 436.24455130815 448.99968985215 436.56455130815 C 449.51168985215 436.88455130815 449.76768985215 437.49255130815 449.76768985215 438.38855130815 C 449.76768985215 439.41255130815 449.28768985215 441.71655130815 448.32768985215 445.30055130815 C 447.68768985215 447.86055130815 447.17568985215 450.10055130815 446.79168985215 452.02055130815 C 446.40768985215 453.94055130815 446.08768985215 456.30855130815 445.83168985215 459.12455130815 C 447.94368985215 453.62055130815 450.31168985215 449.14055130815 452.93568985215 445.68455130815 C 455.55968985215 442.22855130815 458.13568985215 439.76455130815 460.66368985215 438.29255130815 C 463.19168985215 436.82055130815 465.51168985215 436.08455130815 467.62368985215 436.08455130815 C 471.78368985215 436.08455130815 473.86368985215 438.16455130815 473.86368985215 442.32455130815 C 473.86368985215 443.15655130815 473.57568985215 445.17255130815 472.99968985215 448.37255130815 C 472.48768985215 450.93255130815 472.23168985215 452.53255130815 472.23168985215 453.17255130815 C 472.23168985215 455.41255130815 473.03168985215 456.53255130815 474.63168985215 456.53255130815 C 476.42368985215 456.53255130815 478.72768985215 455.12455130815 481.54368985215 452.30855130815 C 482.37568985215 451.47655130815 483.23968985215 451.06055130815 484.13568985215 451.06055130815 C 484.96768985215 451.06055130815 485.62368985215 451.42855130815 486.10368985215 452.16455130815 C 486.58368985215 452.90055130815 486.82368985215 453.87655130815 486.82368985215 455.09255130815 C 486.82368985215 457.46055130815 486.18368985215 459.31655130815 484.90368985215 460.66055130815 C 483.11168985215 462.51655130815 481.01568985215 464.10055130815 478.61568985215 465.41255130815 C 476.21568985215 466.72455130815 473.67168985215 467.38055130815 470.98368985215 467.38055130815 C 467.59168985215 467.38055130815 465.01568985215 466.51655130815 463.25568985215 464.78855130815 C 461.49568985215 463.06055130815 460.61568985215 460.72455130815 460.61568985215 457.78055130815 C 460.61568985215 456.82055130815 460.71168985215 455.86055130815 460.90368985215 454.90055130815 C 461.03168985215 453.62055130815 461.09568985215 452.75655130815 461.09568985215 452.30855130815 C 461.09568985215 451.28455130815 460.74368985215 450.77255130815 460.03968985215 450.77255130815 C 459.07968985215 450.77255130815 457.81568985215 451.84455130815 456.24768985215 453.98855130815 C 454.67968985215 456.13255130815 453.12768985215 458.96455130815 451.59168985215 462.48455130815 C 450.05568985215 466.00455130815 448.80768985215 469.71655130815 447.84768985215 473.62055130815 C 447.14368985215 476.62855130815 446.32768985215 478.66055130815 445.39968985215 479.71655130815 C 444.47168985215 480.77255130815 443.01568985215 481.30055130815 441.03168985215 481.30055130815 C 438.59968985215 481.30055130815 436.88768985215 480.02055130815 435.89568985215 477.46055130815 Z M 529.01568985215 460.80455130815 C 529.49568985215 461.60455130815 529.73568985215 462.61255130815 529.73568985215 463.82855130815 C 529.73568985215 465.30055130815 529.51168985215 466.45255130815 529.06368985215 467.28455130815 C 528.61568985215 468.11655130815 527.91168985215 468.85255130815 526.95168985215 469.49255130815 C 521.44768985215 473.20455130815 517.41568985215 475.95655130815 514.85568985215 477.74855130815 L 508.71168985215 481.87655130815 C 506.27968985215 495.12455130815 503.09568985215 505.54055130815 499.15968985215 513.12455130815 C 495.22368985215 520.70855130815 490.21568985215 524.50055130815 484.13568985215 524.50055130815 C 480.87168985215 524.50055130815 478.21568985215 523.49255130815 476.16768985215 521.47655130815 C 474.11968985215 519.46055130815 473.09568985215 516.82055130815 473.09568985215 513.55655130815 C 473.09568985215 509.01255130815 474.88768985215 504.13255130815 478.47168985215 498.91655130815 C 482.05568985215 493.70055130815 488.77568985215 487.28455130815 498.63168985215 479.66855130815 L 499.20768985215 475.92455130815 C 498.11968985215 477.65255130815 496.69568985215 478.98055130815 494.93568985215 479.90855130815 C 493.17568985215 480.83655130815 491.43168985215 481.30055130815 489.70368985215 481.30055130815 C 485.73568985215 481.30055130815 482.56768985215 479.86055130815 480.19968985215 476.98055130815 C 477.83168985215 474.10055130815 476.64768985215 470.32455130815 476.64768985215 465.65255130815 C 476.64768985215 460.53255130815 477.83168985215 455.68455130815 480.19968985215 451.10855130815 C 482.56768985215 446.53255130815 485.71968985215 442.85255130815 489.65568985215 440.06855130815 C 493.59168985215 437.28455130815 497.76768985215 435.89255130815 502.18368985215 435.89255130815 C 503.59168985215 435.89255130815 504.53568985215 436.16455130815 505.01568985215 436.70855130815 C 505.49568985215 437.25255130815 505.89568985215 438.22855130815 506.21568985215 439.63655130815 C 507.43168985215 439.38055130815 508.83968985215 439.25255130815 510.43968985215 439.25255130815 C 512.03968985215 439.25255130815 513.17568985215 439.49255130815 513.84768985215 439.97255130815 C 514.51968985215 440.45255130815 514.85568985215 441.39655130815 514.85568985215 442.80455130815 C 514.85568985215 443.57255130815 514.82368985215 444.18055130815 514.75968985215 444.62855130815 C 514.50368985215 446.61255130815 513.70368985215 451.63655130815 512.35968985215 459.70055130815 C 512.10368985215 461.23655130815 511.83168985215 462.91655130815 511.54368985215 464.74055130815 C 511.25568985215 466.56455130815 510.95168985215 468.50055130815 510.63168985215 470.54855130815 C 515.55968985215 466.70855130815 520.29568985215 463.31655130815 524.83968985215 460.37255130815 C 525.67168985215 459.86055130815 526.40768985215 459.60455130815 527.04768985215 459.60455130815 C 527.87968985215 459.60455130815 528.53568985215 460.00455130815 529.01568985215 460.80455130815 Z M 497.38368985215 468.91655130815 C 498.72768985215 467.12455130815 499.68768985215 464.56455130815 500.26368985215 461.23655130815 L 503.33568985215 444.82055130815 C 500.71168985215 444.88455130815 498.27968985215 445.89255130815 496.03968985215 447.84455130815 C 493.79968985215 449.79655130815 492.00768985215 452.37255130815 490.66368985215 455.57255130815 C 489.31968985215 458.77255130815 488.64768985215 462.16455130815 488.64768985215 465.74855130815 C 488.64768985215 467.73255130815 489.04768985215 469.20455130815 489.84768985215 470.16455130815 C 490.64768985215 471.12455130815 491.75168985215 471.60455130815 493.15968985215 471.60455130815 C 494.63168985215 471.60455130815 496.03968985215 470.70855130815 497.38368985215 468.91655130815 Z M 490.61568985215 509.42855130815 C 492.63168985215 505.58855130815 494.56768985215 499.47655130815 496.42368985215 491.09255130815 C 491.49568985215 495.31655130815 487.94368985215 499.12455130815 485.76768985215 502.51655130815 C 483.59168985215 505.90855130815 482.50368985215 508.88455130815 482.50368985215 511.44455130815 C 482.50368985215 512.53255130815 482.71168985215 513.42855130815 483.12768985215 514.13255130815 C 483.54368985215 514.83655130815 484.23168985215 515.18855130815 485.19168985215 515.18855130815 C 486.79168985215 515.18855130815 488.59968985215 513.26855130815 490.61568985215 509.42855130815 Z M 568.66368985215 460.56455130815 C 569.14368985215 461.33255130815 569.38368985215 462.38855130815 569.38368985215 463.73255130815 C 569.38368985215 466.29255130815 568.77568985215 468.27655130815 567.55968985215 469.68455130815 C 565.19168985215 472.56455130815 561.84768985215 475.22055130815 557.52768985215 477.65255130815 C 553.20768985215 480.08455130815 548.58368985215 481.30055130815 543.65568985215 481.30055130815 C 536.93568985215 481.30055130815 531.71968985215 479.47655130815 528.00768985215 475.82855130815 C 524.29568985215 472.18055130815 522.43968985215 467.18855130815 522.43968985215 460.85255130815 C 522.43968985215 456.43655130815 523.36768985215 452.32455130815 525.22368985215 448.51655130815 C 527.07968985215 444.70855130815 529.65568985215 441.68455130815 532.95168985215 439.44455130815 C 536.24768985215 437.20455130815 539.97568985215 436.08455130815 544.13568985215 436.08455130815 C 547.84768985215 436.08455130815 550.82368985215 437.18855130815 553.06368985215 439.39655130815 C 555.30368985215 441.60455130815 556.42368985215 444.59655130815 556.42368985215 448.37255130815 C 556.42368985215 452.78855130815 554.83968985215 456.58055130815 551.67168985215 459.74855130815 C 548.50368985215 462.91655130815 543.14368985215 465.42855130815 535.59168985215 467.28455130815 C 537.19168985215 470.22855130815 540.23168985215 471.70055130815 544.71168985215 471.70055130815 C 547.59168985215 471.70055130815 550.87168985215 470.69255130815 554.55168985215 468.67655130815 C 558.23168985215 466.66055130815 561.41568985215 464.02055130815 564.10368985215 460.75655130815 C 564.87168985215 459.86055130815 565.73568985215 459.41255130815 566.69568985215 459.41255130815 C 567.52768985215 459.41255130815 568.18368985215 459.79655130815 568.66368985215 460.56455130815 Z M 536.50368985215 449.62055130815 C 534.87168985215 452.37255130815 534.05568985215 455.70055130815 534.05568985215 459.60455130815 L 534.05568985215 459.79655130815 C 537.83168985215 458.90055130815 540.80768985215 457.55655130815 542.98368985215 455.76455130815 C 545.15968985215 453.97255130815 546.24768985215 451.89255130815 546.24768985215 449.52455130815 C 546.24768985215 448.30855130815 545.91168985215 447.33255130815 545.23968985215 446.59655130815 C 544.56768985215 445.86055130815 543.65568985215 445.49255130815 542.50368985215 445.49255130815 C 540.13568985215 445.49255130815 538.13568985215 446.86855130815 536.50368985215 449.62055130815 Z M 603.99168985215 450.72455130815 C 604.98368985215 451.71655130815 605.47968985215 452.94855130815 605.47968985215 454.42055130815 C 605.47968985215 455.25255130815 605.28768985215 456.14855130815 604.90368985215 457.10855130815 C 603.87968985215 459.47655130815 602.43968985215 461.46055130815 600.58368985215 463.06055130815 C 598.72768985215 464.66055130815 596.67968985215 465.46055130815 594.43968985215 465.46055130815 C 592.64768985215 465.46055130815 591.12768985215 464.82055130815 589.87968985215 463.54055130815 C 588.63168985215 462.26055130815 588.00768985215 460.53255130815 588.00768985215 458.35655130815 C 588.00768985215 457.14055130815 588.07168985215 455.82855130815 588.19968985215 454.42055130815 C 588.32768985215 453.39655130815 588.39168985215 452.69255130815 588.39168985215 452.30855130815 C 588.39168985215 451.79655130815 588.27968985215 451.41255130815 588.05568985215 451.15655130815 C 587.83168985215 450.90055130815 587.55968985215 450.77255130815 587.23968985215 450.77255130815 C 586.34368985215 450.77255130815 585.12768985215 451.84455130815 583.59168985215 453.98855130815 C 582.05568985215 456.13255130815 580.51968985215 458.96455130815 578.98368985215 462.48455130815 C 577.44768985215 466.00455130815 576.19968985215 469.71655130815 575.23968985215 473.62055130815 C 574.53568985215 476.69255130815 573.73568985215 478.74055130815 572.83968985215 479.76455130815 C 571.94368985215 480.78855130815 570.47168985215 481.30055130815 568.42368985215 481.30055130815 C 565.99168985215 481.30055130815 564.27968985215 480.02055130815 563.28768985215 477.46055130815 C 562.29568985215 474.90055130815 561.79968985215 470.80455130815 561.79968985215 465.17255130815 C 561.79968985215 456.85255130815 562.98368985215 448.94855130815 565.35168985215 441.46055130815 C 565.92768985215 439.60455130815 566.87168985215 438.24455130815 568.18368985215 437.38055130815 C 569.49568985215 436.51655130815 571.33568985215 436.08455130815 573.70368985215 436.08455130815 C 574.98368985215 436.08455130815 575.87968985215 436.24455130815 576.39168985215 436.56455130815 C 576.90368985215 436.88455130815 577.15968985215 437.49255130815 577.15968985215 438.38855130815 C 577.15968985215 439.41255130815 576.67968985215 441.71655130815 575.71968985215 445.30055130815 C 575.07968985215 447.86055130815 574.56768985215 450.10055130815 574.18368985215 452.02055130815 C 573.79968985215 453.94055130815 573.47968985215 456.30855130815 573.22368985215 459.12455130815 C 575.33568985215 453.62055130815 577.70368985215 449.14055130815 580.32768985215 445.68455130815 C 582.95168985215 442.22855130815 585.51168985215 439.76455130815 588.00768985215 438.29255130815 C 590.50368985215 436.82055130815 592.77568985215 436.08455130815 594.82368985215 436.08455130815 C 596.67968985215 436.08455130815 598.10368985215 436.61255130815 599.09568985215 437.66855130815 C 600.08768985215 438.72455130815 600.58368985215 440.27655130815 600.58368985215 442.32455130815 C 600.58368985215 443.54055130815 600.23168985215 445.84455130815 599.52768985215 449.23655130815 L 600.39168985215 449.23655130815 C 601.79968985215 449.23655130815 602.99968985215 449.73255130815 603.99168985215 450.72455130815 Z"/><path id="text" fill="#eb8b11" transform="matrix(0.5150273294978911 0 0 0.5150273294978911 355.3176826593279 205.73838606076143)" d="M 149.82521831839 759.20745473954 C 145.44121831839 757.76745473954 141.93721831839 755.83145473954 139.31321831839 753.39945473954 C 138.35321831839 752.50345473954 137.87321831839 751.38345473954 137.87321831839 750.03945473954 C 137.87321831839 749.14345473954 138.12921831839 748.35945473954 138.64121831839 747.68745473954 C 139.15321831839 747.01545473954 139.76121831839 746.67945473954 140.46521831839 746.67945473954 C 141.29721831839 746.67945473954 142.19321831839 747.03145473954 143.15321831839 747.73545473954 C 149.10521831839 752.34345473954 155.88921831839 754.64745473954 163.50521831839 754.64745473954 C 169.00921831839 754.64745473954 173.23321831839 753.59145473954 176.17721831839 751.47945473954 C 179.12121831839 749.36745473954 180.59321831839 746.35945473954 180.59321831839 742.45545473954 C 180.59321831839 740.21545473954 179.88921831839 738.40745473954 178.48121831839 737.03145473954 C 177.07321831839 735.65545473954 175.21721831839 734.55145473954 172.91321831839 733.71945473954 C 170.60921831839 732.88745473954 167.50521831839 732.02345473954 163.60121831839 731.12745473954 C 158.35321831839 729.91145473954 154.04921831839 728.63145473954 150.68921831839 727.28745473954 C 147.32921831839 725.94345473954 144.60921831839 724.02345473954 142.52921831839 721.52745473954 C 140.44921831839 719.03145473954 139.40921831839 715.76745473954 139.40921831839 711.73545473954 C 139.40921831839 707.89545473954 140.44921831839 704.48745473954 142.52921831839 701.51145473954 C 144.60921831839 698.53545473954 147.52121831839 696.23145473954 151.26521831839 694.59945473954 C 155.00921831839 692.96745473954 159.28121831839 692.15145473954 164.08121831839 692.15145473954 C 168.56121831839 692.15145473954 172.73721831839 692.83945473954 176.60921831839 694.21545473954 C 180.48121831839 695.59145473954 183.72921831839 697.55945473954 186.35321831839 700.11945473954 C 187.37721831839 701.14345473954 187.88921831839 702.26345473954 187.88921831839 703.47945473954 C 187.88921831839 704.37545473954 187.63321831839 705.15945473954 187.12121831839 705.83145473954 C 186.60921831839 706.50345473954 186.00121831839 706.83945473954 185.29721831839 706.83945473954 C 184.59321831839 706.83945473954 183.66521831839 706.48745473954 182.51321831839 705.78345473954 C 179.37721831839 703.22345473954 176.46521831839 701.43145473954 173.77721831839 700.40745473954 C 171.08921831839 699.38345473954 167.85721831839 698.87145473954 164.08121831839 698.87145473954 C 158.76921831839 698.87145473954 154.64121831839 699.97545473954 151.69721831839 702.18345473954 C 148.75321831839 704.39145473954 147.28121831839 707.47945473954 147.28121831839 711.44745473954 C 147.28121831839 714.83945473954 148.57721831839 717.38345473954 151.16921831839 719.07945473954 C 153.76121831839 720.77545473954 157.74521831839 722.26345473954 163.12121831839 723.54345473954 C 168.94521831839 724.95145473954 173.52121831839 726.24745473954 176.84921831839 727.43145473954 C 180.17721831839 728.61545473954 182.94521831839 730.39145473954 185.15321831839 732.75945473954 C 187.36121831839 735.12745473954 188.46521831839 738.29545473954 188.46521831839 742.26345473954 C 188.46521831839 746.03945473954 187.42521831839 749.36745473954 185.34521831839 752.24745473954 C 183.26521831839 755.12745473954 180.33721831839 757.36745473954 176.56121831839 758.96745473954 C 172.78521831839 760.56745473954 168.46521831839 761.36745473954 163.60121831839 761.36745473954 C 158.80121831839 761.36745473954 154.20921831839 760.64745473954 149.82521831839 759.20745473954 Z M 236.75321831839 731.12745473954 L 236.75321831839 757.23945473954 C 236.75321831839 758.39145473954 236.41721831839 759.31945473954 235.74521831839 760.02345473954 C 235.07321831839 760.72745473954 234.16121831839 761.07945473954 233.00921831839 761.07945473954 C 231.85721831839 761.07945473954 230.92921831839 760.72745473954 230.22521831839 760.02345473954 C 229.52121831839 759.31945473954 229.16921831839 758.39145473954 229.16921831839 757.23945473954 L 229.16921831839 752.63145473954 C 227.95321831839 755.38345473954 226.09721831839 757.51145473954 223.60121831839 759.01545473954 C 221.10521831839 760.51945473954 218.22521831839 761.27145473954 214.96121831839 761.27145473954 C 211.95321831839 761.27145473954 209.18521831839 760.66345473954 206.65721831839 759.44745473954 C 204.12921831839 758.23145473954 202.12921831839 756.53545473954 200.65721831839 754.35945473954 C 199.18521831839 752.18345473954 198.44921831839 749.78345473954 198.44921831839 747.15945473954 C 198.44921831839 743.63945473954 199.34521831839 740.90345473954 201.13721831839 738.95145473954 C 202.92921831839 736.99945473954 205.87321831839 735.59145473954 209.96921831839 734.72745473954 C 214.06521831839 733.86345473954 219.76121831839 733.43145473954 227.05721831839 733.43145473954 L 229.16921831839 733.43145473954 L 229.16921831839 730.26345473954 C 229.16921831839 726.42345473954 228.38521831839 723.60745473954 226.81721831839 721.81545473954 C 225.24921831839 720.02345473954 222.70521831839 719.12745473954 219.18521831839 719.12745473954 C 214.83321831839 719.12745473954 210.41721831839 720.31145473954 205.93721831839 722.67945473954 C 204.20921831839 723.76745473954 202.99321831839 724.31145473954 202.28921831839 724.31145473954 C 201.52121831839 724.31145473954 200.88121831839 724.02345473954 200.36921831839 723.44745473954 C 199.85721831839 722.87145473954 199.60121831839 722.13545473954 199.60121831839 721.23945473954 C 199.60121831839 720.34345473954 199.87321831839 719.55945473954 200.41721831839 718.88745473954 C 200.96121831839 718.21545473954 201.84121831839 717.52745473954 203.05721831839 716.82345473954 C 205.29721831839 715.54345473954 207.84121831839 714.53545473954 210.68921831839 713.79945473954 C 213.53721831839 713.06345473954 216.36921831839 712.69545473954 219.18521831839 712.69545473954 C 230.89721831839 712.69545473954 236.75321831839 718.83945473954 236.75321831839 731.12745473954 Z M 225.47321831839 751.23945473954 C 227.93721831839 748.64745473954 229.16921831839 745.30345473954 229.16921831839 741.20745473954 L 229.16921831839 738.42345473954 L 227.44121831839 738.42345473954 C 221.80921831839 738.42345473954 217.52121831839 738.66345473954 214.57721831839 739.14345473954 C 211.63321831839 739.62345473954 209.53721831839 740.42345473954 208.28921831839 741.54345473954 C 207.04121831839 742.66345473954 206.41721831839 744.31145473954 206.41721831839 746.48745473954 C 206.41721831839 748.98345473954 207.32921831839 751.04745473954 209.15321831839 752.67945473954 C 210.97721831839 754.31145473954 213.26521831839 755.12745473954 216.01721831839 755.12745473954 C 219.85721831839 755.12745473954 223.00921831839 753.83145473954 225.47321831839 751.23945473954 Z M 275.92121831839 758.00745473954 C 275.92121831839 759.09545473954 275.52121831839 759.91145473954 274.72121831839 760.45545473954 C 273.92121831839 760.99945473954 272.72121831839 761.20745473954 271.12121831839 761.07945473954 L 268.52921831839 760.88745473954 C 263.40921831839 760.50345473954 259.63321831839 758.96745473954 257.20121831839 756.27945473954 C 254.76921831839 753.59145473954 253.55321831839 749.52745473954 253.55321831839 744.08745473954 L 253.55321831839 719.99145473954 L 247.12121831839 719.99145473954 C 246.03321831839 719.99145473954 245.18521831839 719.71945473954 244.57721831839 719.17545473954 C 243.96921831839 718.63145473954 243.66521831839 717.91145473954 243.66521831839 717.01545473954 C 243.66521831839 716.05545473954 243.96921831839 715.28745473954 244.57721831839 714.71145473954 C 245.18521831839 714.13545473954 246.03321831839 713.84745473954 247.12121831839 713.84745473954 L 253.55321831839 713.84745473954 L 253.55321831839 702.99945473954 C 253.55321831839 701.78345473954 253.90521831839 700.83945473954 254.60921831839 700.16745473954 C 255.31321831839 699.49545473954 256.27321831839 699.15945473954 257.48921831839 699.15945473954 C 258.64121831839 699.15945473954 259.56921831839 699.49545473954 260.27321831839 700.16745473954 C 260.97721831839 700.83945473954 261.32921831839 701.78345473954 261.32921831839 702.99945473954 L 261.32921831839 713.84745473954 L 271.98521831839 713.84745473954 C 273.00921831839 713.84745473954 273.82521831839 714.13545473954 274.43321831839 714.71145473954 C 275.04121831839 715.28745473954 275.34521831839 716.05545473954 275.34521831839 717.01545473954 C 275.34521831839 717.91145473954 275.04121831839 718.63145473954 274.43321831839 719.17545473954 C 273.82521831839 719.71945473954 273.00921831839 719.99145473954 271.98521831839 719.99145473954 L 261.32921831839 719.99145473954 L 261.32921831839 744.47145473954 C 261.32921831839 747.99145473954 262.04921831839 750.53545473954 263.48921831839 752.10345473954 C 264.92921831839 753.67145473954 267.08921831839 754.55145473954 269.96921831839 754.74345473954 L 272.56121831839 754.93545473954 C 274.80121831839 755.12745473954 275.92121831839 756.15145473954 275.92121831839 758.00745473954 Z M 284.70521831839 760.07145473954 C 283.96921831839 759.39945473954 283.60121831839 758.45545473954 283.60121831839 757.23945473954 L 283.60121831839 716.72745473954 C 283.60121831839 715.51145473954 283.96921831839 714.56745473954 284.70521831839 713.89545473954 C 285.44121831839 713.22345473954 286.38521831839 712.88745473954 287.53721831839 712.88745473954 C 288.68921831839 712.88745473954 289.61721831839 713.22345473954 290.32121831839 713.89545473954 C 291.02521831839 714.56745473954 291.37721831839 715.51145473954 291.37721831839 716.72745473954 L 291.37721831839 757.23945473954 C 291.37721831839 758.51945473954 291.02521831839 759.47945473954 290.32121831839 760.11945473954 C 289.61721831839 760.75945473954 288.68921831839 761.07945473954 287.53721831839 761.07945473954 C 286.38521831839 761.07945473954 285.44121831839 760.74345473954 284.70521831839 760.07145473954 Z M 283.79321831839 701.46345473954 C 282.83321831839 700.56745473954 282.35321831839 699.38345473954 282.35321831839 697.91145473954 C 282.35321831839 696.50345473954 282.83321831839 695.35145473954 283.79321831839 694.45545473954 C 284.75321831839 693.55945473954 286.00121831839 693.11145473954 287.53721831839 693.11145473954 C 289.07321831839 693.11145473954 290.32121831839 693.55945473954 291.28121831839 694.45545473954 C 292.24121831839 695.35145473954 292.72121831839 696.50345473954 292.72121831839 697.91145473954 C 292.72121831839 699.38345473954 292.24121831839 700.56745473954 291.28121831839 701.46345473954 C 290.32121831839 702.35945473954 289.07321831839 702.80745473954 287.53721831839 702.80745473954 C 286.00121831839 702.80745473954 284.75321831839 702.35945473954 283.79321831839 701.46345473954 Z M 313.21721831839 760.21545473954 C 310.56121831839 759.51145473954 308.20921831839 758.51945473954 306.16121831839 757.23945473954 C 305.00921831839 756.47145473954 304.19321831839 755.75145473954 303.71321831839 755.07945473954 C 303.23321831839 754.40745473954 302.99321831839 753.59145473954 302.99321831839 752.63145473954 C 302.99321831839 751.79945473954 303.23321831839 751.11145473954 303.71321831839 750.56745473954 C 304.19321831839 750.02345473954 304.81721831839 749.75145473954 305.58521831839 749.75145473954 C 306.35321831839 749.75145473954 307.47321831839 750.23145473954 308.94521831839 751.19145473954 C 310.86521831839 752.34345473954 312.76921831839 753.25545473954 314.65721831839 753.92745473954 C 316.54521831839 754.59945473954 318.89721831839 754.93545473954 321.71321831839 754.93545473954 C 325.16921831839 754.93545473954 327.85721831839 754.32745473954 329.77721831839 753.11145473954 C 331.69721831839 751.89545473954 332.65721831839 750.13545473954 332.65721831839 747.83145473954 C 332.65721831839 746.42345473954 332.30521831839 745.28745473954 331.60121831839 744.42345473954 C 330.89721831839 743.55945473954 329.68121831839 742.79145473954 327.95321831839 742.11945473954 C 326.22521831839 741.44745473954 323.69721831839 740.75945473954 320.36921831839 740.05545473954 C 314.73721831839 738.83945473954 310.70521831839 737.20745473954 308.27321831839 735.15945473954 C 305.84121831839 733.11145473954 304.62521831839 730.32745473954 304.62521831839 726.80745473954 C 304.62521831839 724.05545473954 305.39321831839 721.62345473954 306.92921831839 719.51145473954 C 308.46521831839 717.39945473954 310.59321831839 715.73545473954 313.31321831839 714.51945473954 C 316.03321831839 713.30345473954 319.12121831839 712.69545473954 322.57721831839 712.69545473954 C 325.07321831839 712.69545473954 327.48921831839 713.03145473954 329.82521831839 713.70345473954 C 332.16121831839 714.37545473954 334.22521831839 715.31945473954 336.01721831839 716.53545473954 C 338.19321831839 718.07145473954 339.28121831839 719.67145473954 339.28121831839 721.33545473954 C 339.28121831839 722.16745473954 339.02521831839 722.87145473954 338.51321831839 723.44745473954 C 338.00121831839 724.02345473954 337.39321831839 724.31145473954 336.68921831839 724.31145473954 C 335.92121831839 724.31145473954 334.76921831839 723.76745473954 333.23321831839 722.67945473954 C 331.44121831839 721.52745473954 329.74521831839 720.63145473954 328.14521831839 719.99145473954 C 326.54521831839 719.35145473954 324.56121831839 719.03145473954 322.19321831839 719.03145473954 C 319.18521831839 719.03145473954 316.76921831839 719.70345473954 314.94521831839 721.04745473954 C 313.12121831839 722.39145473954 312.20921831839 724.18345473954 312.20921831839 726.42345473954 C 312.20921831839 727.83145473954 312.54521831839 728.96745473954 313.21721831839 729.83145473954 C 313.88921831839 730.69545473954 315.00921831839 731.46345473954 316.57721831839 732.13545473954 C 318.14521831839 732.80745473954 320.40121831839 733.46345473954 323.34521831839 734.10345473954 C 327.69721831839 735.06345473954 331.07321831839 736.11945473954 333.47321831839 737.27145473954 C 335.87321831839 738.42345473954 337.58521831839 739.83145473954 338.60921831839 741.49545473954 C 339.63321831839 743.15945473954 340.14521831839 745.27145473954 340.14521831839 747.83145473954 C 340.14521831839 751.86345473954 338.44921831839 755.11145473954 335.05721831839 757.57545473954 C 331.66521831839 760.03945473954 327.18521831839 761.27145473954 321.61721831839 761.27145473954 C 318.67321831839 761.27145473954 315.87321831839 760.91945473954 313.21721831839 760.21545473954 Z M 364.91321831839 702.27945473954 C 363.18521831839 704.16745473954 362.32121831839 706.99945473954 362.32121831839 710.77545473954 L 362.32121831839 713.84745473954 L 372.97721831839 713.84745473954 C 374.06521831839 713.84745473954 374.89721831839 714.13545473954 375.47321831839 714.71145473954 C 376.04921831839 715.28745473954 376.33721831839 716.05545473954 376.33721831839 717.01545473954 C 376.33721831839 717.97545473954 376.04921831839 718.71145473954 375.47321831839 719.22345473954 C 374.89721831839 719.73545473954 374.06521831839 719.99145473954 372.97721831839 719.99145473954 L 362.32121831839 719.99145473954 L 362.32121831839 757.23945473954 C 362.32121831839 758.45545473954 361.95321831839 759.39945473954 361.21721831839 760.07145473954 C 360.48121831839 760.74345473954 359.56921831839 761.07945473954 358.48121831839 761.07945473954 C 357.32921831839 761.07945473954 356.38521831839 760.74345473954 355.64921831839 760.07145473954 C 354.91321831839 759.39945473954 354.54521831839 758.45545473954 354.54521831839 757.23945473954 L 354.54521831839 719.99145473954 L 348.11321831839 719.99145473954 C 347.02521831839 719.99145473954 346.17721831839 719.71945473954 345.56921831839 719.17545473954 C 344.96121831839 718.63145473954 344.65721831839 717.91145473954 344.65721831839 717.01545473954 C 344.65721831839 716.05545473954 344.96121831839 715.28745473954 345.56921831839 714.71145473954 C 346.17721831839 714.13545473954 347.02521831839 713.84745473954 348.11321831839 713.84745473954 L 354.54521831839 713.84745473954 L 354.54521831839 712.11945473954 C 354.54521831839 706.35945473954 355.98521831839 701.83145473954 358.86521831839 698.53545473954 C 361.74521831839 695.23945473954 365.87321831839 693.39945473954 371.24921831839 693.01545473954 L 373.74521831839 692.82345473954 C 375.40921831839 692.69545473954 376.60921831839 692.85545473954 377.34521831839 693.30345473954 C 378.08121831839 693.75145473954 378.44921831839 694.55145473954 378.44921831839 695.70345473954 C 378.44921831839 697.55945473954 377.32921831839 698.61545473954 375.08921831839 698.87145473954 L 372.59321831839 699.06345473954 C 369.20121831839 699.31945473954 366.64121831839 700.39145473954 364.91321831839 702.27945473954 Z M 421.84121831839 712.98345473954 C 422.80121831839 712.98345473954 423.66521831839 713.30345473954 424.43321831839 713.94345473954 C 425.20121831839 714.58345473954 425.58521831839 715.38345473954 425.58521831839 716.34345473954 C 425.58521831839 716.91945473954 425.45721831839 717.43145473954 425.20121831839 717.87945473954 L 398.22521831839 776.05545473954 C 397.90521831839 776.75945473954 397.44121831839 777.30345473954 396.83321831839 777.68745473954 C 396.22521831839 778.07145473954 395.60121831839 778.26345473954 394.96121831839 778.26345473954 C 394.00121831839 778.26345473954 393.15321831839 777.95945473954 392.41721831839 777.35145473954 C 391.68121831839 776.74345473954 391.31321831839 775.95945473954 391.31321831839 774.99945473954 C 391.31321831839 774.48745473954 391.44121831839 773.97545473954 391.69721831839 773.46345473954 L 398.41721831839 758.96745473954 L 379.40921831839 717.87945473954 C 379.15321831839 717.43145473954 379.02521831839 716.95145473954 379.02521831839 716.43945473954 C 379.02521831839 715.47945473954 379.45721831839 714.64745473954 380.32121831839 713.94345473954 C 381.18521831839 713.23945473954 382.12921831839 712.88745473954 383.15321831839 712.88745473954 C 383.79321831839 712.88745473954 384.41721831839 713.07945473954 385.02521831839 713.46345473954 C 385.63321831839 713.84745473954 386.09721831839 714.39145473954 386.41721831839 715.09545473954 L 402.44921831839 751.09545473954 L 418.48121831839 715.28745473954 C 419.18521831839 713.75145473954 420.30521831839 712.98345473954 421.84121831839 712.98345473954 Z M 436.48121831839 760.07145473954 C 435.74521831839 759.39945473954 435.37721831839 758.45545473954 435.37721831839 757.23945473954 L 435.37721831839 716.72745473954 C 435.37721831839 715.51145473954 435.74521831839 714.56745473954 436.48121831839 713.89545473954 C 437.21721831839 713.22345473954 438.16121831839 712.88745473954 439.31321831839 712.88745473954 C 440.46521831839 712.88745473954 441.39321831839 713.22345473954 442.09721831839 713.89545473954 C 442.80121831839 714.56745473954 443.15321831839 715.51145473954 443.15321831839 716.72745473954 L 443.15321831839 757.23945473954 C 443.15321831839 758.51945473954 442.80121831839 759.47945473954 442.09721831839 760.11945473954 C 441.39321831839 760.75945473954 440.46521831839 761.07945473954 439.31321831839 761.07945473954 C 438.16121831839 761.07945473954 437.21721831839 760.74345473954 436.48121831839 760.07145473954 Z M 435.56921831839 701.46345473954 C 434.60921831839 700.56745473954 434.12921831839 699.38345473954 434.12921831839 697.91145473954 C 434.12921831839 696.50345473954 434.60921831839 695.35145473954 435.56921831839 694.45545473954 C 436.52921831839 693.55945473954 437.77721831839 693.11145473954 439.31321831839 693.11145473954 C 440.84921831839 693.11145473954 442.09721831839 693.55945473954 443.05721831839 694.45545473954 C 444.01721831839 695.35145473954 444.49721831839 696.50345473954 444.49721831839 697.91145473954 C 444.49721831839 699.38345473954 444.01721831839 700.56745473954 443.05721831839 701.46345473954 C 442.09721831839 702.35945473954 440.84921831839 702.80745473954 439.31321831839 702.80745473954 C 437.77721831839 702.80745473954 436.52921831839 702.35945473954 435.56921831839 701.46345473954 Z M 497.96921831839 731.22345473954 L 497.96921831839 757.23945473954 C 497.96921831839 758.45545473954 497.63321831839 759.39945473954 496.96121831839 760.07145473954 C 496.28921831839 760.74345473954 495.34521831839 761.07945473954 494.12921831839 761.07945473954 C 492.91321831839 761.07945473954 491.95321831839 760.74345473954 491.24921831839 760.07145473954 C 490.54521831839 759.39945473954 490.19321831839 758.45545473954 490.19321831839 757.23945473954 L 490.19321831839 731.70345473954 C 490.19321831839 727.35145473954 489.34521831839 724.18345473954 487.64921831839 722.19945473954 C 485.95321831839 720.21545473954 483.24921831839 719.22345473954 479.53721831839 719.22345473954 C 475.24921831839 719.22345473954 471.82521831839 720.53545473954 469.26521831839 723.15945473954 C 466.70521831839 725.78345473954 465.42521831839 729.33545473954 465.42521831839 733.81545473954 L 465.42521831839 757.23945473954 C 465.42521831839 758.45545473954 465.08921831839 759.39945473954 464.41721831839 760.07145473954 C 463.74521831839 760.74345473954 462.80121831839 761.07945473954 461.58521831839 761.07945473954 C 460.36921831839 761.07945473954 459.40921831839 760.74345473954 458.70521831839 760.07145473954 C 458.00121831839 759.39945473954 457.64921831839 758.45545473954 457.64921831839 757.23945473954 L 457.64921831839 716.72745473954 C 457.64921831839 715.57545473954 458.00121831839 714.64745473954 458.70521831839 713.94345473954 C 459.40921831839 713.23945473954 460.36921831839 712.88745473954 461.58521831839 712.88745473954 C 462.73721831839 712.88745473954 463.64921831839 713.23945473954 464.32121831839 713.94345473954 C 464.99321831839 714.64745473954 465.32921831839 715.54345473954 465.32921831839 716.63145473954 L 465.32921831839 721.52745473954 C 466.86521831839 718.64745473954 469.00921831839 716.45545473954 471.76121831839 714.95145473954 C 474.51321831839 713.44745473954 477.64921831839 712.69545473954 481.16921831839 712.69545473954 C 492.36921831839 712.69545473954 497.96921831839 718.87145473954 497.96921831839 731.22345473954 Z M 552.97721831839 713.94345473954 C 553.68121831839 714.64745473954 554.03321831839 715.57545473954 554.03321831839 716.72745473954 L 554.03321831839 757.43145473954 C 554.03321831839 764.40745473954 552.24121831839 769.67145473954 548.65721831839 773.22345473954 C 545.07321831839 776.77545473954 539.76121831839 778.55145473954 532.72121831839 778.55145473954 C 525.87321831839 778.55145473954 520.17721831839 777.20745473954 515.63321831839 774.51945473954 C 513.32921831839 773.23945473954 512.17721831839 771.76745473954 512.17721831839 770.10345473954 C 512.17721831839 769.20745473954 512.41721831839 768.47145473954 512.89721831839 767.89545473954 C 513.37721831839 767.31945473954 514.00121831839 767.03145473954 514.76921831839 767.03145473954 C 515.40921831839 767.03145473954 516.56121831839 767.47945473954 518.22521831839 768.37545473954 C 520.46521831839 769.52745473954 522.67321831839 770.45545473954 524.84921831839 771.15945473954 C 527.02521831839 771.86345473954 529.61721831839 772.21545473954 532.62521831839 772.21545473954 C 537.16921831839 772.21545473954 540.59321831839 771.01545473954 542.89721831839 768.61545473954 C 545.20121831839 766.21545473954 546.35321831839 762.71145473954 546.35321831839 758.10345473954 L 546.35321831839 749.84745473954 C 545.00921831839 752.85545473954 542.94521831839 755.15945473954 540.16121831839 756.75945473954 C 537.37721831839 758.35945473954 534.09721831839 759.15945473954 530.32121831839 759.15945473954 C 526.22521831839 759.15945473954 522.59321831839 758.19945473954 519.42521831839 756.27945473954 C 516.25721831839 754.35945473954 513.79321831839 751.63945473954 512.03321831839 748.11945473954 C 510.27321831839 744.59945473954 509.39321831839 740.53545473954 509.39321831839 735.92745473954 C 509.39321831839 731.31945473954 510.27321831839 727.25545473954 512.03321831839 723.73545473954 C 513.79321831839 720.21545473954 516.25721831839 717.49545473954 519.42521831839 715.57545473954 C 522.59321831839 713.65545473954 526.22521831839 712.69545473954 530.32121831839 712.69545473954 C 534.03321831839 712.69545473954 537.26521831839 713.49545473954 540.01721831839 715.09545473954 C 542.76921831839 716.69545473954 544.84921831839 718.96745473954 546.25721831839 721.91145473954 L 546.25721831839 716.72745473954 C 546.25721831839 715.57545473954 546.59321831839 714.64745473954 547.26521831839 713.94345473954 C 547.93721831839 713.23945473954 548.88121831839 712.88745473954 550.09721831839 712.88745473954 C 551.31321831839 712.88745473954 552.27321831839 713.23945473954 552.97721831839 713.94345473954 Z M 542.41721831839 748.26345473954 C 544.97721831839 745.28745473954 546.25721831839 741.17545473954 546.25721831839 735.92745473954 C 546.25721831839 730.74345473954 544.99321831839 726.66345473954 542.46521831839 723.68745473954 C 539.93721831839 720.71145473954 536.40121831839 719.22345473954 531.85721831839 719.22345473954 C 527.31321831839 719.22345473954 523.74521831839 720.71145473954 521.15321831839 723.68745473954 C 518.56121831839 726.66345473954 517.26521831839 730.74345473954 517.26521831839 735.92745473954 C 517.26521831839 741.17545473954 518.56121831839 745.28745473954 521.15321831839 748.26345473954 C 523.74521831839 751.23945473954 527.31321831839 752.72745473954 531.85721831839 752.72745473954 C 536.33721831839 752.72745473954 539.85721831839 751.23945473954 542.41721831839 748.26345473954 Z M 606.44921831839 757.19145473954 C 601.77721831839 754.40745473954 598.17721831839 750.40745473954 595.64921831839 745.19145473954 C 593.12121831839 739.97545473954 591.85721831839 733.81545473954 591.85721831839 726.71145473954 C 591.85721831839 719.67145473954 593.12121831839 713.54345473954 595.64921831839 708.32745473954 C 598.17721831839 703.11145473954 601.77721831839 699.11145473954 606.44921831839 696.32745473954 C 611.12121831839 693.54345473954 616.65721831839 692.15145473954 623.05721831839 692.15145473954 C 627.34521831839 692.15145473954 631.39321831839 692.83945473954 635.20121831839 694.21545473954 C 639.00921831839 695.59145473954 642.32121831839 697.55945473954 645.13721831839 700.11945473954 C 646.16121831839 701.07945473954 646.67321831839 702.19945473954 646.67321831839 703.47945473954 C 646.67321831839 704.37545473954 646.41721831839 705.15945473954 645.90521831839 705.83145473954 C 645.39321831839 706.50345473954 644.78521831839 706.83945473954 644.08121831839 706.83945473954 C 643.31321831839 706.83945473954 642.38521831839 706.48745473954 641.29721831839 705.78345473954 C 638.03321831839 703.22345473954 635.07321831839 701.43145473954 632.41721831839 700.40745473954 C 629.76121831839 699.38345473954 626.70521831839 698.87145473954 623.24921831839 698.87145473954 C 615.82521831839 698.87145473954 610.11321831839 701.28745473954 606.11321831839 706.11945473954 C 602.11321831839 710.95145473954 600.11321831839 717.81545473954 600.11321831839 726.71145473954 C 600.11321831839 735.67145473954 602.11321831839 742.56745473954 606.11321831839 747.39945473954 C 610.11321831839 752.23145473954 615.82521831839 754.64745473954 623.24921831839 754.64745473954 C 626.64121831839 754.64745473954 629.68121831839 754.13545473954 632.36921831839 753.11145473954 C 635.05721831839 752.08745473954 638.03321831839 750.29545473954 641.29721831839 747.73545473954 C 642.38521831839 747.03145473954 643.31321831839 746.67945473954 644.08121831839 746.67945473954 C 644.78521831839 746.67945473954 645.39321831839 746.99945473954 645.90521831839 747.63945473954 C 646.41721831839 748.27945473954 646.67321831839 749.07945473954 646.67321831839 750.03945473954 C 646.67321831839 751.31945473954 646.16121831839 752.43945473954 645.13721831839 753.39945473954 C 642.32121831839 755.95945473954 639.00921831839 757.92745473954 635.20121831839 759.30345473954 C 631.39321831839 760.67945473954 627.34521831839 761.36745473954 623.05721831839 761.36745473954 C 616.65721831839 761.36745473954 611.12121831839 759.97545473954 606.44921831839 757.19145473954 Z M 685.36121831839 716.15145473954 C 685.36121831839 717.17545473954 685.07321831839 717.99145473954 684.49721831839 718.59945473954 C 683.92121831839 719.20745473954 682.92921831839 719.57545473954 681.52121831839 719.70345473954 L 678.64121831839 719.99145473954 C 674.35321831839 720.37545473954 671.16921831839 721.89545473954 669.08921831839 724.55145473954 C 667.00921831839 727.20745473954 665.96921831839 730.32745473954 665.96921831839 733.91145473954 L 665.96921831839 757.23945473954 C 665.96921831839 758.51945473954 665.61721831839 759.47945473954 664.91321831839 760.11945473954 C 664.20921831839 760.75945473954 663.28121831839 761.07945473954 662.12921831839 761.07945473954 C 660.97721831839 761.07945473954 660.03321831839 760.74345473954 659.29721831839 760.07145473954 C 658.56121831839 759.39945473954 658.19321831839 758.45545473954 658.19321831839 757.23945473954 L 658.19321831839 716.72745473954 C 658.19321831839 715.51145473954 658.57721831839 714.56745473954 659.34521831839 713.89545473954 C 660.11321831839 713.22345473954 661.04121831839 712.88745473954 662.12921831839 712.88745473954 C 663.15321831839 712.88745473954 664.01721831839 713.22345473954 664.72121831839 713.89545473954 C 665.42521831839 714.56745473954 665.77721831839 715.47945473954 665.77721831839 716.63145473954 L 665.77721831839 722.00745473954 C 667.12121831839 719.19145473954 669.02521831839 717.04745473954 671.48921831839 715.57545473954 C 673.95321831839 714.10345473954 676.78521831839 713.23945473954 679.98521831839 712.98345473954 L 681.32921831839 712.88745473954 C 684.01721831839 712.69545473954 685.36121831839 713.78345473954 685.36121831839 716.15145473954 Z M 728.36921831839 731.12745473954 L 728.36921831839 757.23945473954 C 728.36921831839 758.39145473954 728.03321831839 759.31945473954 727.36121831839 760.02345473954 C 726.68921831839 760.72745473954 725.77721831839 761.07945473954 724.62521831839 761.07945473954 C 723.47321831839 761.07945473954 722.54521831839 760.72745473954 721.84121831839 760.02345473954 C 721.13721831839 759.31945473954 720.78521831839 758.39145473954 720.78521831839 757.23945473954 L 720.78521831839 752.63145473954 C 719.56921831839 755.38345473954 717.71321831839 757.51145473954 715.21721831839 759.01545473954 C 712.72121831839 760.51945473954 709.84121831839 761.27145473954 706.57721831839 761.27145473954 C 703.56921831839 761.27145473954 700.80121831839 760.66345473954 698.27321831839 759.44745473954 C 695.74521831839 758.23145473954 693.74521831839 756.53545473954 692.27321831839 754.35945473954 C 690.80121831839 752.18345473954 690.06521831839 749.78345473954 690.06521831839 747.15945473954 C 690.06521831839 743.63945473954 690.96121831839 740.90345473954 692.75321831839 738.95145473954 C 694.54521831839 736.99945473954 697.48921831839 735.59145473954 701.58521831839 734.72745473954 C 705.68121831839 733.86345473954 711.37721831839 733.43145473954 718.67321831839 733.43145473954 L 720.78521831839 733.43145473954 L 720.78521831839 730.26345473954 C 720.78521831839 726.42345473954 720.00121831839 723.60745473954 718.43321831839 721.81545473954 C 716.86521831839 720.02345473954 714.32121831839 719.12745473954 710.80121831839 719.12745473954 C 706.44921831839 719.12745473954 702.03321831839 720.31145473954 697.55321831839 722.67945473954 C 695.82521831839 723.76745473954 694.60921831839 724.31145473954 693.90521831839 724.31145473954 C 693.13721831839 724.31145473954 692.49721831839 724.02345473954 691.98521831839 723.44745473954 C 691.47321831839 722.87145473954 691.21721831839 722.13545473954 691.21721831839 721.23945473954 C 691.21721831839 720.34345473954 691.48921831839 719.55945473954 692.03321831839 718.88745473954 C 692.57721831839 718.21545473954 693.45721831839 717.52745473954 694.67321831839 716.82345473954 C 696.91321831839 715.54345473954 699.45721831839 714.53545473954 702.30521831839 713.79945473954 C 705.15321831839 713.06345473954 707.98521831839 712.69545473954 710.80121831839 712.69545473954 C 722.51321831839 712.69545473954 728.36921831839 718.83945473954 728.36921831839 731.12745473954 Z M 717.08921831839 751.23945473954 C 719.55321831839 748.64745473954 720.78521831839 745.30345473954 720.78521831839 741.20745473954 L 720.78521831839 738.42345473954 L 719.05721831839 738.42345473954 C 713.42521831839 738.42345473954 709.13721831839 738.66345473954 706.19321831839 739.14345473954 C 703.24921831839 739.62345473954 701.15321831839 740.42345473954 699.90521831839 741.54345473954 C 698.65721831839 742.66345473954 698.03321831839 744.31145473954 698.03321831839 746.48745473954 C 698.03321831839 748.98345473954 698.94521831839 751.04745473954 700.76921831839 752.67945473954 C 702.59321831839 754.31145473954 704.88121831839 755.12745473954 707.63321831839 755.12745473954 C 711.47321831839 755.12745473954 714.62521831839 753.83145473954 717.08921831839 751.23945473954 Z M 779.63321831839 712.98345473954 C 780.59321831839 712.98345473954 781.45721831839 713.30345473954 782.22521831839 713.94345473954 C 782.99321831839 714.58345473954 783.37721831839 715.38345473954 783.37721831839 716.34345473954 C 783.37721831839 716.91945473954 783.24921831839 717.43145473954 782.99321831839 717.87945473954 L 764.27321831839 758.19945473954 C 763.88921831839 759.03145473954 763.31321831839 759.68745473954 762.54521831839 760.16745473954 C 761.77721831839 760.64745473954 760.94521831839 760.88745473954 760.04921831839 760.88745473954 C 759.21721831839 760.88745473954 758.41721831839 760.64745473954 757.64921831839 760.16745473954 C 756.88121831839 759.68745473954 756.27321831839 759.03145473954 755.82521831839 758.19945473954 L 737.20121831839 717.87945473954 C 736.94521831839 717.43145473954 736.81721831839 716.95145473954 736.81721831839 716.43945473954 C 736.81721831839 715.47945473954 737.24921831839 714.64745473954 738.11321831839 713.94345473954 C 738.97721831839 713.23945473954 739.92121831839 712.88745473954 740.94521831839 712.88745473954 C 741.58521831839 712.88745473954 742.20921831839 713.07945473954 742.81721831839 713.46345473954 C 743.42521831839 713.84745473954 743.88921831839 714.39145473954 744.20921831839 715.09545473954 L 760.24121831839 751.09545473954 L 776.27321831839 715.28745473954 C 776.97721831839 713.75145473954 778.09721831839 712.98345473954 779.63321831839 712.98345473954 Z M 794.27321831839 760.07145473954 C 793.53721831839 759.39945473954 793.16921831839 758.45545473954 793.16921831839 757.23945473954 L 793.16921831839 716.72745473954 C 793.16921831839 715.51145473954 793.53721831839 714.56745473954 794.27321831839 713.89545473954 C 795.00921831839 713.22345473954 795.95321831839 712.88745473954 797.10521831839 712.88745473954 C 798.25721831839 712.88745473954 799.18521831839 713.22345473954 799.88921831839 713.89545473954 C 800.59321831839 714.56745473954 800.94521831839 715.51145473954 800.94521831839 716.72745473954 L 800.94521831839 757.23945473954 C 800.94521831839 758.51945473954 800.59321831839 759.47945473954 799.88921831839 760.11945473954 C 799.18521831839 760.75945473954 798.25721831839 761.07945473954 797.10521831839 761.07945473954 C 795.95321831839 761.07945473954 795.00921831839 760.74345473954 794.27321831839 760.07145473954 Z M 793.36121831839 701.46345473954 C 792.40121831839 700.56745473954 791.92121831839 699.38345473954 791.92121831839 697.91145473954 C 791.92121831839 696.50345473954 792.40121831839 695.35145473954 793.36121831839 694.45545473954 C 794.32121831839 693.55945473954 795.56921831839 693.11145473954 797.10521831839 693.11145473954 C 798.64121831839 693.11145473954 799.88921831839 693.55945473954 800.84921831839 694.45545473954 C 801.80921831839 695.35145473954 802.28921831839 696.50345473954 802.28921831839 697.91145473954 C 802.28921831839 699.38345473954 801.80921831839 700.56745473954 800.84921831839 701.46345473954 C 799.88921831839 702.35945473954 798.64121831839 702.80745473954 797.10521831839 702.80745473954 C 795.56921831839 702.80745473954 794.32121831839 702.35945473954 793.36121831839 701.46345473954 Z M 855.76121831839 731.22345473954 L 855.76121831839 757.23945473954 C 855.76121831839 758.45545473954 855.42521831839 759.39945473954 854.75321831839 760.07145473954 C 854.08121831839 760.74345473954 853.13721831839 761.07945473954 851.92121831839 761.07945473954 C 850.70521831839 761.07945473954 849.74521831839 760.74345473954 849.04121831839 760.07145473954 C 848.33721831839 759.39945473954 847.98521831839 758.45545473954 847.98521831839 757.23945473954 L 847.98521831839 731.70345473954 C 847.98521831839 727.35145473954 847.13721831839 724.18345473954 845.44121831839 722.19945473954 C 843.74521831839 720.21545473954 841.04121831839 719.22345473954 837.32921831839 719.22345473954 C 833.04121831839 719.22345473954 829.61721831839 720.53545473954 827.05721831839 723.15945473954 C 824.49721831839 725.78345473954 823.21721831839 729.33545473954 823.21721831839 733.81545473954 L 823.21721831839 757.23945473954 C 823.21721831839 758.45545473954 822.88121831839 759.39945473954 822.20921831839 760.07145473954 C 821.53721831839 760.74345473954 820.59321831839 761.07945473954 819.37721831839 761.07945473954 C 818.16121831839 761.07945473954 817.20121831839 760.74345473954 816.49721831839 760.07145473954 C 815.79321831839 759.39945473954 815.44121831839 758.45545473954 815.44121831839 757.23945473954 L 815.44121831839 716.72745473954 C 815.44121831839 715.57545473954 815.79321831839 714.64745473954 816.49721831839 713.94345473954 C 817.20121831839 713.23945473954 818.16121831839 712.88745473954 819.37721831839 712.88745473954 C 820.52921831839 712.88745473954 821.44121831839 713.23945473954 822.11321831839 713.94345473954 C 822.78521831839 714.64745473954 823.12121831839 715.54345473954 823.12121831839 716.63145473954 L 823.12121831839 721.52745473954 C 824.65721831839 718.64745473954 826.80121831839 716.45545473954 829.55321831839 714.95145473954 C 832.30521831839 713.44745473954 835.44121831839 712.69545473954 838.96121831839 712.69545473954 C 850.16121831839 712.69545473954 855.76121831839 718.87145473954 855.76121831839 731.22345473954 Z M 910.76921831839 713.94345473954 C 911.47321831839 714.64745473954 911.82521831839 715.57545473954 911.82521831839 716.72745473954 L 911.82521831839 757.43145473954 C 911.82521831839 764.40745473954 910.03321831839 769.67145473954 906.44921831839 773.22345473954 C 902.86521831839 776.77545473954 897.55321831839 778.55145473954 890.51321831839 778.55145473954 C 883.66521831839 778.55145473954 877.96921831839 777.20745473954 873.42521831839 774.51945473954 C 871.12121831839 773.23945473954 869.96921831839 771.76745473954 869.96921831839 770.10345473954 C 869.96921831839 769.20745473954 870.20921831839 768.47145473954 870.68921831839 767.89545473954 C 871.16921831839 767.31945473954 871.79321831839 767.03145473954 872.56121831839 767.03145473954 C 873.20121831839 767.03145473954 874.35321831839 767.47945473954 876.01721831839 768.37545473954 C 878.25721831839 769.52745473954 880.46521831839 770.45545473954 882.64121831839 771.15945473954 C 884.81721831839 771.86345473954 887.40921831839 772.21545473954 890.41721831839 772.21545473954 C 894.96121831839 772.21545473954 898.38521831839 771.01545473954 900.68921831839 768.61545473954 C 902.99321831839 766.21545473954 904.14521831839 762.71145473954 904.14521831839 758.10345473954 L 904.14521831839 749.84745473954 C 902.80121831839 752.85545473954 900.73721831839 755.15945473954 897.95321831839 756.75945473954 C 895.16921831839 758.35945473954 891.88921831839 759.15945473954 888.11321831839 759.15945473954 C 884.01721831839 759.15945473954 880.38521831839 758.19945473954 877.21721831839 756.27945473954 C 874.04921831839 754.35945473954 871.58521831839 751.63945473954 869.82521831839 748.11945473954 C 868.06521831839 744.59945473954 867.18521831839 740.53545473954 867.18521831839 735.92745473954 C 867.18521831839 731.31945473954 868.06521831839 727.25545473954 869.82521831839 723.73545473954 C 871.58521831839 720.21545473954 874.04921831839 717.49545473954 877.21721831839 715.57545473954 C 880.38521831839 713.65545473954 884.01721831839 712.69545473954 888.11321831839 712.69545473954 C 891.82521831839 712.69545473954 895.05721831839 713.49545473954 897.80921831839 715.09545473954 C 900.56121831839 716.69545473954 902.64121831839 718.96745473954 904.04921831839 721.91145473954 L 904.04921831839 716.72745473954 C 904.04921831839 715.57545473954 904.38521831839 714.64745473954 905.05721831839 713.94345473954 C 905.72921831839 713.23945473954 906.67321831839 712.88745473954 907.88921831839 712.88745473954 C 909.10521831839 712.88745473954 910.06521831839 713.23945473954 910.76921831839 713.94345473954 Z M 900.20921831839 748.26345473954 C 902.76921831839 745.28745473954 904.04921831839 741.17545473954 904.04921831839 735.92745473954 C 904.04921831839 730.74345473954 902.78521831839 726.66345473954 900.25721831839 723.68745473954 C 897.72921831839 720.71145473954 894.19321831839 719.22345473954 889.64921831839 719.22345473954 C 885.10521831839 719.22345473954 881.53721831839 720.71145473954 878.94521831839 723.68745473954 C 876.35321831839 726.66345473954 875.05721831839 730.74345473954 875.05721831839 735.92745473954 C 875.05721831839 741.17545473954 876.35321831839 745.28745473954 878.94521831839 748.26345473954 C 881.53721831839 751.23945473954 885.10521831839 752.72745473954 889.64921831839 752.72745473954 C 894.12921831839 752.72745473954 897.64921831839 751.23945473954 900.20921831839 748.26345473954 Z M 933.56921831839 760.21545473954 C 930.91321831839 759.51145473954 928.56121831839 758.51945473954 926.51321831839 757.23945473954 C 925.36121831839 756.47145473954 924.54521831839 755.75145473954 924.06521831839 755.07945473954 C 923.58521831839 754.40745473954 923.34521831839 753.59145473954 923.34521831839 752.63145473954 C 923.34521831839 751.79945473954 923.58521831839 751.11145473954 924.06521831839 750.56745473954 C 924.54521831839 750.02345473954 925.16921831839 749.75145473954 925.93721831839 749.75145473954 C 926.70521831839 749.75145473954 927.82521831839 750.23145473954 929.29721831839 751.19145473954 C 931.21721831839 752.34345473954 933.12121831839 753.25545473954 935.00921831839 753.92745473954 C 936.89721831839 754.59945473954 939.24921831839 754.93545473954 942.06521831839 754.93545473954 C 945.52121831839 754.93545473954 948.20921831839 754.32745473954 950.12921831839 753.11145473954 C 952.04921831839 751.89545473954 953.00921831839 750.13545473954 953.00921831839 747.83145473954 C 953.00921831839 746.42345473954 952.65721831839 745.28745473954 951.95321831839 744.42345473954 C 951.24921831839 743.55945473954 950.03321831839 742.79145473954 948.30521831839 742.11945473954 C 946.57721831839 741.44745473954 944.04921831839 740.75945473954 940.72121831839 740.05545473954 C 935.08921831839 738.83945473954 931.05721831839 737.20745473954 928.62521831839 735.15945473954 C 926.19321831839 733.11145473954 924.97721831839 730.32745473954 924.97721831839 726.80745473954 C 924.97721831839 724.05545473954 925.74521831839 721.62345473954 927.28121831839 719.51145473954 C 928.81721831839 717.39945473954 930.94521831839 715.73545473954 933.66521831839 714.51945473954 C 936.38521831839 713.30345473954 939.47321831839 712.69545473954 942.92921831839 712.69545473954 C 945.42521831839 712.69545473954 947.84121831839 713.03145473954 950.17721831839 713.70345473954 C 952.51321831839 714.37545473954 954.57721831839 715.31945473954 956.36921831839 716.53545473954 C 958.54521831839 718.07145473954 959.63321831839 719.67145473954 959.63321831839 721.33545473954 C 959.63321831839 722.16745473954 959.37721831839 722.87145473954 958.86521831839 723.44745473954 C 958.35321831839 724.02345473954 957.74521831839 724.31145473954 957.04121831839 724.31145473954 C 956.27321831839 724.31145473954 955.12121831839 723.76745473954 953.58521831839 722.67945473954 C 951.79321831839 721.52745473954 950.09721831839 720.63145473954 948.49721831839 719.99145473954 C 946.89721831839 719.35145473954 944.91321831839 719.03145473954 942.54521831839 719.03145473954 C 939.53721831839 719.03145473954 937.12121831839 719.70345473954 935.29721831839 721.04745473954 C 933.47321831839 722.39145473954 932.56121831839 724.18345473954 932.56121831839 726.42345473954 C 932.56121831839 727.83145473954 932.89721831839 728.96745473954 933.56921831839 729.83145473954 C 934.24121831839 730.69545473954 935.36121831839 731.46345473954 936.92921831839 732.13545473954 C 938.49721831839 732.80745473954 940.75321831839 733.46345473954 943.69721831839 734.10345473954 C 948.04921831839 735.06345473954 951.42521831839 736.11945473954 953.82521831839 737.27145473954 C 956.22521831839 738.42345473954 957.93721831839 739.83145473954 958.96121831839 741.49545473954 C 959.98521831839 743.15945473954 960.49721831839 745.27145473954 960.49721831839 747.83145473954 C 960.49721831839 751.86345473954 958.80121831839 755.11145473954 955.40921831839 757.57545473954 C 952.01721831839 760.03945473954 947.53721831839 761.27145473954 941.96921831839 761.27145473954 C 939.02521831839 761.27145473954 936.22521831839 760.91945473954 933.56921831839 760.21545473954 Z"/></svg>